<svg width="174" height="80" viewBox="0 0 174 80" fill="none" xmlns="http://www.w3.org/2000/svg">
<path d="M18.3462 47.8709C17.0404 47.8709 15.8699 47.5232 14.8345 46.8278C13.8069 46.1324 12.9918 45.1744 12.3891 43.9536C11.7942 42.7251 11.4967 41.315 11.4967 39.7234C11.4967 38.5258 11.6706 37.4325 12.0182 36.4435C12.3737 35.4468 12.8759 34.5892 13.5249 33.8706C14.1816 33.1443 14.962 32.5842 15.866 32.1901C16.7777 31.7961 17.7899 31.5991 18.9025 31.5991C20.5868 31.5991 21.9583 31.9815 23.0168 32.7464C24.0753 33.5036 24.8286 34.6935 25.2768 36.316L21.3363 37.023C21.0736 36.3817 20.7259 35.8756 20.2932 35.5048C19.8605 35.1339 19.3274 34.9485 18.6939 34.9485C18.0912 34.9485 17.5465 35.1416 17.0597 35.5279C16.5807 35.9143 16.2021 36.4628 15.9239 37.1737C15.6458 37.8845 15.5067 38.7344 15.5067 39.7234C15.5067 40.7046 15.6458 41.5545 15.9239 42.2731C16.2021 42.9839 16.5807 43.5325 17.0597 43.9188C17.5465 44.3051 18.0912 44.4983 18.6939 44.4983C19.2888 44.4983 19.818 44.3747 20.2816 44.1274C20.7529 43.8725 21.1199 43.5325 21.3826 43.1075C21.6531 42.6749 21.7883 42.1997 21.7883 41.682H22.4373C22.4373 42.9491 22.2866 44.0463 21.9853 44.9735C21.684 45.9006 21.232 46.6153 20.6293 47.1175C20.0267 47.6198 19.2656 47.8709 18.3462 47.8709ZM22.2519 47.5L21.7883 44.3013V41.5429L18.6939 41.5198V39.2482H25.3115V47.5H22.2519ZM28.9603 47.5V31.9467H35.0332C36.9803 31.9467 38.4908 32.3949 39.5647 33.2911C40.6464 34.1797 41.1873 35.3734 41.1873 36.8723C41.1873 38.3403 40.6464 39.5186 39.5647 40.4072C38.4908 41.288 36.9803 41.7284 35.0332 41.7284H32.6689V47.5H28.9603ZM37.073 47.5L33.2832 39.9899H37.2005L41.929 47.5H37.073ZM32.6689 39.3177H34.616C35.5354 39.3177 36.2231 39.1284 36.6789 38.7498C37.1425 38.3635 37.3743 37.8729 37.3743 37.278C37.3743 36.6599 37.1773 36.1538 36.7832 35.7597C36.3969 35.358 35.8136 35.1571 35.0332 35.1571H32.6689V39.3177ZM51.0102 47.8709C49.5345 47.8709 48.2442 47.5618 47.1393 46.9437C46.0421 46.3179 45.1884 45.3984 44.578 44.1854C43.9676 42.9646 43.6624 41.4618 43.6624 39.677C43.6624 37.8459 43.9676 36.3353 44.578 35.1455C45.1884 33.9479 46.0421 33.0593 47.1393 32.4799C48.2442 31.8927 49.5345 31.5991 51.0102 31.5991C52.5014 31.5991 53.7994 31.9042 54.9043 32.5146C56.0169 33.125 56.8784 34.029 57.4888 35.2266C58.0992 36.4242 58.4044 37.9077 58.4044 39.677C58.4044 41.4927 58.0992 43.011 57.4888 44.2317C56.8784 45.4448 56.0169 46.3565 54.9043 46.9669C53.7994 47.5695 52.5014 47.8709 51.0102 47.8709ZM51.0102 44.5446C52.0919 44.5446 52.9573 44.1197 53.6063 43.2698C54.2553 42.4122 54.5798 41.2068 54.5798 39.6538C54.5798 38.1935 54.2553 37.0423 53.6063 36.2001C52.9573 35.3502 52.0919 34.9253 51.0102 34.9253C49.9594 34.9253 49.1095 35.3502 48.4605 36.2001C47.8115 37.0423 47.487 38.2013 47.487 39.677C47.487 41.2146 47.8115 42.4122 48.4605 43.2698C49.1095 44.1197 49.9594 44.5446 51.0102 44.5446ZM59.5327 31.9467H63.6586L67.1471 44.2317H66.2895L69.5925 32.4103H72.0959L75.735 43.9536H74.9817L78.2731 31.9467H82.4802L77.288 47.5H73.3823L70.879 39.6654H71.0412L68.6538 47.5H64.7597L59.5327 31.9467ZM82.7572 35.1571V31.9467H95.5638V35.1571H90.1978L91.0322 34.3226V47.5H87.3235V34.3226L88.158 35.1571H82.7572ZM97.6604 31.9467H101.369V38.0776H107.245V31.9467H110.988V47.5H107.245V41.3459H101.369V47.5H97.6604V31.9467Z" fill="#FF4647"/>
<path d="M113.089 35.1571V31.9467H125.896V35.1571H120.53L121.364 34.3226V47.5H117.656V34.3226L118.49 35.1571H113.089ZM127.993 47.5V31.9467H134.066C136.013 31.9467 137.523 32.3949 138.597 33.2911C139.679 34.1797 140.22 35.3734 140.22 36.8723C140.22 38.3403 139.679 39.5186 138.597 40.4072C137.523 41.288 136.013 41.7284 134.066 41.7284H131.701V47.5H127.993ZM136.105 47.5L132.315 39.9899H136.233L140.961 47.5H136.105ZM131.701 39.3177H133.648C134.568 39.3177 135.255 39.1284 135.711 38.7498C136.175 38.3635 136.407 37.8729 136.407 37.278C136.407 36.6599 136.21 36.1538 135.816 35.7597C135.429 35.358 134.846 35.1571 134.066 35.1571H131.701V39.3177ZM143.657 47.5V31.9467H147.365V47.5H143.657ZM151.215 47.5V31.9467H157.184C158.976 31.9467 160.398 32.3794 161.449 33.2448C162.499 34.1024 163.025 35.3734 163.025 37.0578C163.025 38.7344 162.499 40.0092 161.449 40.8823C160.398 41.7477 158.976 42.1804 157.184 42.1804H154.947V47.5H151.215ZM154.947 38.9353H157.184C157.856 38.9353 158.362 38.7498 158.702 38.379C159.049 38.0004 159.223 37.56 159.223 37.0578C159.223 36.5478 159.049 36.1036 158.702 35.725C158.362 35.3464 157.856 35.1571 157.184 35.1571H154.947V38.9353Z" fill="black"/>
</svg>
