<svg width="174" height="80" viewBox="0 0 174 80" fill="none" xmlns="http://www.w3.org/2000/svg">
<g clip-path="url(#clip0_106_419)">
<path fill-rule="evenodd" clip-rule="evenodd" d="M134.777 35.4633C134.82 35.3997 134.912 35.3921 134.967 35.4467L136.774 37.2385C136.814 37.2782 136.822 37.3394 136.795 37.3887C136.694 37.5718 136.604 37.7609 136.526 37.955C136.27 38.5821 136.14 39.2528 136.144 39.9292C136.142 40.6008 136.278 41.2658 136.546 41.8828C136.805 42.4823 137.171 43.0302 137.627 43.4997C138.075 43.9587 138.607 44.3293 139.194 44.592C139.791 44.8616 140.44 44.9976 141.095 44.9903C141.75 44.9829 142.396 44.8323 142.987 44.5492C143.572 44.2746 144.099 43.8937 144.543 43.4263C144.993 42.9496 145.348 42.3936 145.591 41.7871C146.086 40.5252 146.071 39.1227 145.55 37.8713C145.294 37.2736 144.927 36.7287 144.469 36.2646C144.017 35.8081 143.482 35.441 142.892 35.1827C142.296 34.9171 141.649 34.7807 140.995 34.7828C140.344 34.7937 139.701 34.9404 139.11 35.2135C139.038 35.2463 138.967 35.2807 138.897 35.3168C138.848 35.3423 138.787 35.3338 138.747 35.2947L136.981 33.5424C136.924 33.4862 136.934 33.3926 137.002 33.3509C137.37 33.1248 137.758 32.9303 138.163 32.77C139.096 32.4 140.095 32.2201 141.101 32.2412C142.136 32.2485 143.159 32.463 144.109 32.8718C145.019 33.2626 145.843 33.8265 146.534 34.5315C147.224 35.2389 147.774 36.0686 148.155 36.9774C148.551 37.918 148.746 38.9303 148.727 39.9497C148.721 40.9764 148.505 41.9912 148.091 42.9323C147.697 43.8348 147.133 44.6546 146.429 45.3474C145.726 46.0361 144.895 46.5819 143.981 46.9541C143.027 47.3433 142.004 47.5398 140.973 47.5318C139.95 47.5388 138.937 47.3351 137.997 46.9336C137.095 46.5494 136.278 45.9924 135.593 45.2944C134.907 44.5899 134.368 43.7589 134.005 42.8485C133.619 41.8861 133.425 40.8588 133.433 39.8232C133.426 38.8171 133.62 37.8195 134.004 36.8879C134.21 36.3861 134.469 35.9086 134.777 35.4633ZM96.6723 35.6024C96.6166 35.5471 96.5237 35.5558 96.4807 35.6214C96.2315 36.0008 96.0157 36.4018 95.8357 36.8201C95.4337 37.7453 95.2324 38.7464 95.2324 39.8232C95.2247 40.8588 95.4192 41.8861 95.8048 42.8485C96.1676 43.7589 96.7071 44.5899 97.3927 45.2943C98.0773 45.9923 98.8944 46.5493 99.7972 46.9335C100.736 47.335 101.75 47.5388 102.773 47.5317C103.945 47.5454 105.026 47.3249 106.015 46.8702C106.99 46.4249 107.862 45.7849 108.577 44.9901C108.598 44.9638 108.613 44.9336 108.623 44.9014C108.632 44.8691 108.634 44.8354 108.63 44.8021C108.627 44.7689 108.617 44.7366 108.601 44.7075C108.585 44.6783 108.562 44.6529 108.535 44.6329L106.861 43.2262C106.838 43.2001 106.808 43.1799 106.774 43.1671C106.741 43.1544 106.706 43.1494 106.67 43.1527C106.637 43.1556 106.605 43.1655 106.576 43.1817C106.546 43.1979 106.521 43.2201 106.501 43.2467C106.058 43.7728 105.51 44.2022 104.891 44.5081C104.273 44.8153 103.592 44.9801 102.9 44.9901C102.244 44.9951 101.595 44.8629 100.994 44.6021C100.405 44.3457 99.8732 43.9782 99.4266 43.5202C98.9699 43.0509 98.6037 42.503 98.3458 41.9033C98.0768 41.2795 97.9399 40.6076 97.9442 39.9292C97.9399 39.2527 98.069 38.582 98.325 37.955C98.3811 37.8167 98.443 37.6811 98.5103 37.5483C98.535 37.4996 98.5258 37.4404 98.4871 37.4018L96.6723 35.6024ZM100.385 35.3824C100.425 35.4228 100.488 35.4305 100.538 35.4023C100.659 35.3342 100.783 35.2712 100.909 35.2134C101.5 34.9404 102.143 34.7936 102.795 34.7827C103.507 34.7641 104.213 34.9191 104.85 35.2339C105.479 35.5459 106.04 35.9781 106.501 36.5056C106.521 36.5325 106.546 36.5549 106.575 36.5711C106.605 36.5873 106.637 36.5971 106.67 36.5996C106.739 36.6074 106.807 36.5883 106.861 36.5466L108.535 35.1399C108.563 35.1204 108.585 35.0953 108.601 35.0665C108.618 35.0375 108.627 35.0054 108.63 34.9724C108.638 34.9047 108.619 34.8366 108.577 34.7827C107.876 34.0031 107.022 33.3743 106.067 32.9351C105.1 32.4878 104.045 32.2565 102.9 32.2411C101.869 32.2199 100.846 32.4096 99.8921 32.7983C99.4557 32.9762 99.0386 33.1947 98.6458 33.4504C98.58 33.4932 98.5717 33.585 98.6274 33.6401L100.385 35.3824ZM149.217 32.7456C149.217 32.7126 149.224 32.6799 149.236 32.6494C149.249 32.6189 149.268 32.5912 149.291 32.5679C149.314 32.5445 149.343 32.526 149.373 32.5134C149.404 32.5008 149.437 32.4943 149.47 32.4944H158.664C158.798 32.4921 158.932 32.5213 159.054 32.5794C159.175 32.6376 159.281 32.7232 159.363 32.8293L160.93 34.8667C160.987 34.9368 160.998 35.0034 160.963 35.0667C160.945 35.0978 160.918 35.1231 160.886 35.1397C160.854 35.1564 160.818 35.1637 160.782 35.1607H156.059V46.944C156.059 47.1116 155.974 47.1953 155.805 47.1953H153.623C153.454 47.1953 153.368 47.1116 153.368 46.944V35.1607H149.47C149.437 35.1614 149.403 35.1552 149.373 35.1426C149.342 35.1299 149.314 35.111 149.291 35.0872C149.267 35.0644 149.248 35.0367 149.235 35.0061C149.222 34.9755 149.216 34.9426 149.217 34.9095V32.7456ZM111.266 32.5349H121.075C121.111 32.532 121.147 32.5396 121.179 32.5565C121.211 32.5735 121.237 32.5992 121.254 32.6306C121.29 32.6938 121.278 32.7605 121.223 32.8289L119.656 34.8663C119.574 34.9729 119.468 35.059 119.347 35.1174C119.226 35.1759 119.092 35.2052 118.957 35.203H113.725V38.5633H119.02C119.189 38.5633 119.273 38.647 119.273 38.8163V40.9579C119.273 41.1391 119.189 41.2314 119.02 41.2314H113.725V44.5694H120.418C120.452 44.5694 120.485 44.576 120.516 44.5887C120.546 44.6014 120.574 44.6201 120.598 44.6436C120.622 44.6671 120.64 44.695 120.653 44.7257C120.665 44.7564 120.672 44.7893 120.672 44.8224V46.9863C120.672 47.1538 120.587 47.2376 120.418 47.2376H111.266C111.233 47.2376 111.2 47.2311 111.17 47.2185C111.139 47.2059 111.111 47.1874 111.087 47.1641C111.064 47.1407 111.045 47.113 111.032 47.0825C111.02 47.052 111.013 47.0193 111.013 46.9863V32.7878C111.012 32.7545 111.019 32.7213 111.031 32.6905C111.044 32.6596 111.063 32.6317 111.087 32.6084C111.111 32.5849 111.139 32.5662 111.169 32.5536C111.2 32.541 111.233 32.5346 111.266 32.5349ZM79.1459 32.7885V46.987C79.1459 47.02 79.1522 47.0527 79.1647 47.0832C79.1778 47.1137 79.1962 47.1414 79.2199 47.1647C79.2436 47.1881 79.2712 47.2066 79.3021 47.2192C79.3331 47.2318 79.366 47.2383 79.3989 47.2382H81.5814C81.7657 47.2382 81.8572 47.1545 81.8572 46.987V37.0735L89.4613 46.9015C89.5431 47.0082 89.6491 47.0942 89.7705 47.1527C89.8924 47.2112 90.0259 47.2405 90.1609 47.2382H92.1726C92.342 47.2382 92.4281 47.1545 92.4281 46.987V32.7885C92.4281 32.621 92.342 32.5356 92.1726 32.5356H89.9906C89.8213 32.5356 89.7371 32.621 89.7371 32.7885V42.702L82.1107 32.8723C82.0289 32.7659 81.9235 32.6799 81.802 32.6214C81.6811 32.5629 81.5475 32.5335 81.4126 32.5356H79.3989C79.366 32.5353 79.3326 32.5416 79.3021 32.5543C79.2712 32.5669 79.2431 32.5855 79.2199 32.6091C79.1957 32.6323 79.1768 32.6603 79.1643 32.6912C79.1512 32.7221 79.1449 32.7552 79.1459 32.7885ZM55.3345 32.5692H53.1522C53.1188 32.5689 53.0858 32.5753 53.055 32.5879C53.0242 32.6005 52.9963 32.6192 52.9729 32.6427C52.9488 32.666 52.9297 32.6939 52.917 32.7248C52.9042 32.7557 52.8981 32.7888 52.8987 32.8222V47.0206C52.8987 47.0536 52.9052 47.0863 52.9179 47.1168C52.9307 47.1473 52.9493 47.1751 52.9729 47.1984C52.9964 47.2217 53.0243 47.2402 53.0551 47.2529C53.0859 47.2654 53.1189 47.2719 53.1522 47.2719H59.7118C59.9807 47.2719 60.2066 47.1608 60.3893 46.9351L61.3051 44.8978C61.3254 44.8709 61.3372 44.8388 61.339 44.8053C61.3409 44.7719 61.3327 44.7386 61.3155 44.7098C61.2997 44.6763 61.2742 44.6484 61.2423 44.6295C61.2103 44.6106 61.1734 44.6016 61.1362 44.6038H55.6103V32.8222C55.6103 32.6547 55.519 32.5692 55.3345 32.5692ZM126.641 32.5352H124.459C124.425 32.5349 124.392 32.5413 124.361 32.5539C124.331 32.5665 124.303 32.5851 124.28 32.6087C124.255 32.632 124.236 32.6599 124.223 32.6908C124.211 32.7217 124.205 32.7548 124.205 32.7881V46.9866C124.205 47.0196 124.212 47.0523 124.224 47.0828C124.237 47.1133 124.256 47.141 124.28 47.1643C124.303 47.1877 124.331 47.2062 124.362 47.2188C124.392 47.2314 124.425 47.2379 124.459 47.2378H130.751C131.02 47.2378 131.246 47.1267 131.428 46.9011L133.017 44.8637C133.038 44.8369 133.05 44.8047 133.051 44.7713C133.053 44.7378 133.045 44.7046 133.028 44.6757C133.012 44.6423 132.986 44.6143 132.954 44.5954C132.922 44.5766 132.886 44.5676 132.848 44.5698H126.917V32.7881C126.917 32.6206 126.825 32.5352 126.641 32.5352ZM74.2541 47.1975H76.6665C76.6998 47.1975 76.7327 47.1911 76.7637 47.1784C76.7942 47.1658 76.8222 47.1473 76.846 47.1239C76.8692 47.1006 76.888 47.0729 76.9006 47.0424C76.9137 47.0119 76.92 46.9792 76.92 46.9462L71.7543 32.7478C71.7552 32.7147 71.7489 32.6817 71.7364 32.6511C71.7233 32.6205 71.7044 32.5929 71.6802 32.57C71.657 32.5461 71.629 32.5273 71.5985 32.5147C71.5675 32.502 71.5341 32.4958 71.5007 32.4965H69.4876C69.3526 32.4941 69.2195 32.5232 69.0981 32.5814C68.9767 32.6396 68.8712 32.7253 68.7894 32.8315L63.0446 46.9035C63.0248 46.9306 63.0127 46.9631 63.0107 46.9968C63.0093 47.0305 63.0175 47.064 63.0344 47.0932C63.0504 47.1266 63.0765 47.1545 63.1085 47.1731C63.1409 47.1917 63.1781 47.2002 63.2154 47.1975H65.4342C65.5692 47.1997 65.7027 47.1705 65.8241 47.1124C65.9456 47.0542 66.0515 46.9686 66.1338 46.8625L70.1606 36.6024L73.9784 46.9462C73.9784 46.9802 73.9861 47.0137 74.0006 47.0444C74.0151 47.0751 74.0364 47.1023 74.0626 47.1239C74.1148 47.1714 74.183 47.1977 74.2541 47.1975Z" fill="black"/>
<path fill-rule="evenodd" clip-rule="evenodd" d="M29.106 53.5636C36.5586 53.5636 42.6001 47.5221 42.6001 40.0695C42.6001 32.6169 36.5586 26.5754 29.106 26.5754C25.71 26.5754 22.607 27.8299 20.2351 29.9008L25.8122 35.0857C25.8122 35.0857 25.1994 35.4315 24.865 35.7671C24.5306 36.1027 24.0997 36.8045 24.0997 36.8045L18.5581 31.6526C16.7143 33.9601 15.6119 36.8861 15.6119 40.0695C15.6119 47.5221 21.6535 53.5636 29.106 53.5636ZM27.8806 37.1194V29.2697C28.2827 29.2244 28.6915 29.2011 29.1057 29.2011C29.5117 29.2011 29.9125 29.2234 30.3069 29.267V36.7182C30.3069 36.8663 30.4859 36.9404 30.5906 36.8357L35.8596 31.5667C36.493 32.073 37.0685 32.649 37.5745 33.2831L32.3062 38.5513C32.2015 38.656 32.2757 38.835 32.4237 38.835L39.8734 38.835C39.918 39.2348 39.9408 39.6412 39.9408 40.0528C39.9408 40.4613 39.9183 40.8645 39.8744 41.2613H32.4237C32.2757 41.2613 32.2015 41.4403 32.3062 41.545L37.5786 46.8174C37.073 47.4518 36.4979 48.0281 35.8648 48.5348L30.5906 43.2606C30.4859 43.156 30.3069 43.2301 30.3069 43.3781L30.3069 50.8387C29.9125 50.8822 29.5117 50.9046 29.1057 50.9046C28.6915 50.9046 28.2827 50.8813 27.8806 50.836V43.3781C27.8806 43.2301 27.7016 43.1559 27.5969 43.2606L22.3334 48.5242C21.7011 48.0165 21.1268 47.4393 20.6222 46.8041L25.8813 41.545C25.986 41.4403 25.9118 41.2613 25.7638 41.2613H18.337C18.2931 40.8645 18.2706 40.4613 18.2706 40.0528C18.2706 39.6412 18.2934 39.2348 18.338 38.835H26.165C26.165 38.835 26.4254 38.0684 26.7791 37.7181C27.127 37.3736 27.8806 37.1194 27.8806 37.1194Z" fill="black"/>
</g>
<defs>
<clipPath id="clip0_106_419">
<rect width="148" height="28.5908" fill="white" transform="translate(13.0002 25.7046)"/>
</clipPath>
</defs>
</svg>
