<svg width="174" height="80" viewBox="0 0 174 80" fill="none" xmlns="http://www.w3.org/2000/svg">
<path d="M23.8053 50.9503C30.0894 50.9503 35.1836 45.8561 35.1836 39.572C35.1836 33.2879 30.0894 28.1936 23.8053 28.1936C17.5212 28.1936 12.4269 33.2879 12.4269 39.572C12.4269 45.8561 17.5212 50.9503 23.8053 50.9503Z" fill="#FFB32C"/>
<mask id="mask0_111_501" style="mask-type:luminance" maskUnits="userSpaceOnUse" x="10" y="29" width="27" height="23">
<path d="M34.6543 32.8026V29.511H12.1378V33.8102C11.3909 35.4265 10.9744 37.2263 10.9744 39.1236C10.9744 46.1279 16.6524 51.8064 23.6571 51.8064C30.6618 51.8064 36.3399 46.1283 36.3399 39.1236C36.3395 36.822 35.7263 34.6632 34.6543 32.8026Z" fill="white"/>
</mask>
<g mask="url(#mask0_111_501)">
<path d="M33.7115 46.9921C33.3451 47.8071 33.1673 48.6956 33.2175 49.5882C33.3741 52.385 32.7369 58.7496 23.6832 58.7496H23.6823C14.6302 58.7496 13.9922 52.385 14.1497 49.5882C14.199 48.6956 14.0212 47.8071 13.6557 46.9921C12.7321 44.9336 12.385 43.1314 12.3911 41.5792V41.5763C12.4102 36.6362 16.0127 34.2396 16.0127 34.2396C17.9929 29.2024 23.6832 29.6405 23.6832 29.6405C23.6832 29.6405 29.3739 29.2024 31.354 34.2396C31.354 34.2396 37.5759 38.3793 33.7115 46.9921Z" fill="white"/>
<path d="M34.9679 41.5764V41.5793C34.9736 43.1311 34.6269 44.9337 33.7033 46.9922C33.6568 47.0962 33.6132 47.2019 33.5728 47.3083C33.2958 48.0341 33.1669 48.8096 33.2093 49.5883C33.2933 51.0887 33.1489 53.6159 31.5992 55.6368C30.2611 57.3815 27.8751 58.7481 23.6828 58.7497H23.677C14.6306 58.7465 13.9926 52.3843 14.1497 49.5883C14.199 48.6957 14.0212 47.8073 13.6557 46.9922C12.7321 44.9337 12.385 43.1315 12.3911 41.5793V41.5764C12.5963 39.4686 13.2453 37.907 14.113 36.7542C16.6116 33.4324 20.93 33.5034 21.7173 33.6474C22.7445 33.8358 23.6228 33.9627 23.677 33.97C23.6791 33.9709 23.6799 33.9709 23.6799 33.9709C23.6799 33.9709 24.5823 33.8415 25.6425 33.6474C26.4294 33.5034 30.7482 33.4324 33.2468 36.7542C34.1137 37.907 34.7627 39.4686 34.9679 41.5764Z" fill="#C1BFBF"/>
<path d="M34.968 41.5761V41.579C34.9738 43.1307 34.627 44.9334 33.7034 46.9919C33.6569 47.0959 33.6133 47.2015 33.5729 47.308C30.4424 52.5924 23.6768 52.8959 23.6768 52.8959C23.6768 52.8959 16.9111 52.5924 13.7806 47.308C13.7398 47.2015 13.6966 47.0963 13.6501 46.9919C13.2793 46.167 13.0027 45.383 12.8024 44.6401C12.505 43.5289 12.3814 42.5091 12.3851 41.579V41.5761C12.5903 39.4683 13.2393 37.9067 14.107 36.7539C14.209 36.618 14.3138 36.4887 14.4215 36.3639C16.9519 33.4378 20.9558 33.5087 21.7113 33.6466C22.7716 33.8408 23.6739 33.9701 23.6739 33.9701C23.6739 33.9701 23.6747 33.9701 23.6768 33.9693C23.6788 33.9701 23.6796 33.9701 23.6796 33.9701C23.6796 33.9701 24.582 33.8408 25.6422 33.6466C26.4291 33.5026 30.7479 33.4316 33.2466 36.7535C34.1138 37.9067 34.7629 39.4683 34.968 41.5761Z" fill="#A0A0A0"/>
<path d="M13.9173 37.9307C13.9173 37.9307 12.3839 40.9792 12.7869 44.4887C12.7926 44.5405 12.7979 44.5915 12.8024 44.6408C12.505 43.5296 12.3814 42.5098 12.3851 41.5797V41.5768C12.5903 39.469 13.2393 37.9074 14.107 36.7546C14.209 36.6187 14.3138 36.4894 14.4215 36.3646C14.4843 36.3589 14.5198 36.3564 14.5198 36.3564L13.9173 37.9307Z" fill="#C1BFBF"/>
<path d="M33.4361 37.9307C33.4361 37.9307 34.9696 40.9792 34.5665 44.4887C34.5608 44.5405 34.5555 44.5915 34.551 44.6408C34.8484 43.5296 34.972 42.5098 34.9683 41.5797V41.5768C34.7632 39.469 34.1141 37.9074 33.2464 36.7546C33.1445 36.6187 33.0396 36.4894 32.9319 36.3646C32.8691 36.3589 32.8336 36.3564 32.8336 36.3564L33.4361 37.9307Z" fill="#C1BFBF"/>
<path d="M23.6836 58.7492C14.6303 58.7492 13.9927 52.385 14.1498 49.5878C14.1999 48.6956 14.0217 47.8071 13.6558 46.9917C9.79137 38.3793 16.0128 34.2391 16.0128 34.2391C17.9933 29.2024 23.6836 29.6405 23.6836 29.6405C23.6836 29.6405 29.374 29.2024 31.3545 34.2396C31.3545 34.2396 37.5759 38.3797 33.7115 46.9921C33.3456 47.8075 33.1678 48.6956 33.2175 49.5882C33.3742 52.385 32.7366 58.7492 23.6836 58.7492Z" stroke="#595653" stroke-width="0.343874" stroke-miterlimit="10" stroke-linecap="round" stroke-linejoin="round"/>
<path d="M27.6506 48.0612C27.5111 48.213 27.3381 48.3859 27.1329 48.565C26.386 49.214 25.2136 49.9332 23.6794 49.9332C22.1447 49.9332 20.9715 49.214 20.2254 48.5642C20.0202 48.3859 19.8476 48.2121 19.7085 48.0608C19.9149 48.1138 20.1221 48.1628 20.3286 48.2081C21.4773 48.4634 22.6191 48.6123 23.6794 48.6123C24.7396 48.6123 25.881 48.4634 27.0293 48.2081C27.2366 48.1632 27.4434 48.1142 27.6506 48.0612Z" fill="#379E25"/>
<path d="M16.4363 50.7063C16.4514 50.7488 16.4698 50.7896 16.4951 50.8297C16.4853 50.8117 16.4628 50.768 16.4363 50.7063Z" fill="white"/>
<path d="M30.8676 50.8218C30.8664 50.8243 30.8652 50.8272 30.8635 50.8296C30.8893 50.7888 30.9085 50.7463 30.9236 50.7034C30.8999 50.7589 30.8791 50.8002 30.8676 50.8218Z" fill="white"/>
<path d="M24.0092 51.7214C24.0092 51.9029 23.8611 52.0514 23.6791 52.0514C23.4972 52.0514 23.3491 51.9033 23.3491 51.7214C23.3491 51.703 23.3508 51.6843 23.354 51.6671C23.3797 51.5113 23.516 51.3914 23.6791 51.3914C23.8423 51.3914 23.9786 51.5109 24.0043 51.6671C24.0071 51.6843 24.0092 51.7026 24.0092 51.7214Z" fill="#C1BFBF"/>
<path d="M24.0044 51.6669C23.9787 51.8227 23.8424 51.9418 23.6793 51.9418C23.5161 51.9418 23.3798 51.8227 23.3541 51.6669C23.3798 51.511 23.5161 51.3911 23.6793 51.3911C23.8424 51.3911 23.9787 51.511 24.0044 51.6669Z" fill="white"/>
<path d="M23.6793 50.2919C23.3154 50.2919 22.9752 50.2507 22.6582 50.1814L22.6888 51.7218L22.7516 54.9171C22.7545 55.0742 22.825 55.2231 22.9442 55.3259C23.386 55.7057 23.5879 55.8688 23.6793 55.9394C23.7706 55.8688 23.973 55.7057 24.4144 55.3259C24.5335 55.2231 24.6041 55.0742 24.6069 54.9171L24.6701 51.7112L24.6999 50.1814C24.3834 50.2507 24.0431 50.2919 23.6793 50.2919ZM23.6793 51.1523C23.993 51.1523 24.2483 51.4077 24.2483 51.7214C24.2483 52.0351 23.993 52.2904 23.6793 52.2904C23.3656 52.2904 23.1102 52.0351 23.1102 51.7214C23.1102 51.4077 23.3656 51.1523 23.6793 51.1523ZM23.6793 53.3735C23.993 53.3735 24.2483 53.6289 24.2483 53.9426C24.2483 54.2563 23.993 54.5116 23.6793 54.5116C23.3656 54.5116 23.1102 54.2563 23.1102 53.9426C23.1102 53.6289 23.3656 53.3735 23.6793 53.3735Z" fill="white"/>
<path d="M30.8784 69.3992C30.6932 69.5897 30.0022 70.1633 28.1652 70.4733C26.8341 70.6985 26.1782 70.5186 25.4843 70.3281C24.9809 70.1898 24.4628 70.0478 23.6832 70.0613H23.6796C22.8984 70.047 22.3787 70.1898 21.8749 70.3281C21.181 70.5186 20.525 70.6989 19.1939 70.4733C17.357 70.1629 16.6659 69.5897 16.4807 69.3992C16.6582 68.9276 17.3904 66.848 17.9195 63.3854C18.0464 62.554 18.1614 61.6427 18.2548 60.6555C18.3474 59.6765 18.3984 58.7708 18.4131 57.9415C18.4364 56.6549 18.3719 55.5551 18.2381 54.6568C18.2377 54.6527 18.2377 54.6507 18.2377 54.6507C17.9538 52.7501 17.4822 51.7217 17.4822 51.7217C17.4822 51.7217 17.6339 52.4388 17.8061 53.7173C17.2383 51.842 16.5007 50.8389 16.5007 50.8389L16.5497 50.3017C16.5672 50.1079 16.6708 49.9357 16.8352 49.8301C17.6331 49.3149 18.8194 48.3693 19.1205 48.1265C19.3146 48.1857 19.5113 48.2424 19.7079 48.2958V48.2962H19.7083C19.8972 48.5467 20.7873 49.6331 22.2979 50.0891L22.3929 54.9252C22.3982 55.1839 22.5137 55.4298 22.7103 55.5987C23.5653 56.3326 23.5959 56.3326 23.6792 56.3326C23.7624 56.3326 23.7926 56.3326 24.648 55.5979C24.8446 55.4286 24.9601 55.183 24.9654 54.9244L25.0604 50.1022V50.0883C26.571 49.6322 27.4611 48.5459 27.65 48.2954H27.6504V48.295C27.847 48.242 28.0437 48.1849 28.2383 48.1257C28.5397 48.3685 29.7256 49.3141 30.5235 49.8293C30.6879 49.9349 30.7919 50.1071 30.8091 50.3009L30.858 50.8381C30.858 50.8381 30.1205 51.8412 29.5526 53.7169C29.7248 52.4384 29.8765 51.7209 29.8765 51.7209C29.8765 51.7209 29.405 52.7497 29.121 54.6499C28.9003 56.1274 28.8677 58.1512 29.1035 60.6547C29.1981 61.6541 29.3144 62.5748 29.4437 63.414C29.9728 66.859 30.7014 68.9293 30.8784 69.3992Z" fill="white"/>
<path d="M22.7515 54.9172L22.6887 51.7218L22.907 54.6414C22.9184 54.7895 22.9853 54.9282 23.0954 55.0289L23.5535 55.4475C23.6245 55.5127 23.7343 55.5127 23.8052 55.4475L24.2634 55.0289C24.3735 54.9286 24.4404 54.7899 24.4518 54.6414L24.6713 51.7112L24.6081 54.9172C24.6052 55.0742 24.5346 55.2231 24.4155 55.3259C23.9737 55.7057 23.7718 55.8689 23.6804 55.9394C23.589 55.8689 23.3867 55.7057 22.9453 55.3259C22.825 55.2231 22.7544 55.0742 22.7515 54.9172Z" fill="#C1BFBF"/>
<path d="M25.1809 55.2087C25.1857 55.4282 25.1062 55.6415 24.9585 55.8043L23.9448 56.9192C23.8024 57.0763 23.5556 57.0763 23.4133 56.9192L22.3995 55.8043C22.2519 55.6415 22.1723 55.4282 22.1772 55.2087L22.298 50.0879L22.393 54.924C22.3983 55.1826 22.5138 55.4286 22.7104 55.5975C23.5654 56.3326 23.596 56.3326 23.6792 56.3326C23.7625 56.3326 23.7926 56.3326 24.6481 55.5979C24.8447 55.4286 24.9602 55.183 24.9655 54.9244L25.0605 50.1022L25.1809 55.2087Z" fill="#C1BFBF"/>
<path d="M23.6792 49.9333C22.0259 49.9333 20.869 49.0085 20.3227 48.4521C20.1171 48.4031 19.9128 48.3509 19.7084 48.2954C19.8972 48.5459 20.7874 49.6322 22.298 50.0883L22.393 54.9244C22.3983 55.183 22.5138 55.429 22.7104 55.5979C23.5654 56.3326 23.596 56.3326 23.6792 56.3326C23.7624 56.3326 23.7926 56.3326 24.6481 55.5979C24.8447 55.4286 24.9601 55.183 24.9655 54.9244L25.0605 50.0883C26.5711 49.6322 27.4612 48.5459 27.6501 48.2954C27.4457 48.3509 27.2413 48.4031 27.0357 48.4521C26.4895 49.0085 25.3326 49.9333 23.6792 49.9333ZM24.6069 54.917C24.604 55.0741 24.5334 55.223 24.4143 55.3258C23.9725 55.7052 23.7706 55.8683 23.6792 55.9389C23.5874 55.8683 23.3855 55.7052 22.9441 55.3258C22.825 55.223 22.7544 55.0741 22.7516 54.917L22.6582 50.1813C22.9751 50.2507 23.3149 50.2919 23.6792 50.2919C24.0435 50.2919 24.3833 50.2507 24.7003 50.1813L24.6069 54.917Z" fill="#595653"/>
<path d="M23.1102 51.7211C23.1102 52.0348 23.3656 52.2902 23.6793 52.2902C23.993 52.2902 24.2484 52.0348 24.2484 51.7211C24.2484 51.4074 23.993 51.1516 23.6793 51.1516C23.3656 51.1516 23.1102 51.407 23.1102 51.7211ZM24.0093 51.7211C24.0093 51.903 23.8612 52.0511 23.6793 52.0511C23.4974 52.0511 23.3493 51.903 23.3493 51.7211C23.3493 51.5392 23.4974 51.3911 23.6793 51.3911C23.8612 51.3911 24.0093 51.5387 24.0093 51.7211Z" fill="#595653"/>
<path d="M29.4287 54.7208C29.6445 52.8203 29.877 51.7217 29.877 51.7217C29.877 51.7217 29.4054 52.7505 29.1215 54.6507C28.9008 56.1282 28.8681 58.152 29.1039 60.6555C29.5845 65.7559 30.6582 68.8146 30.8781 69.3992C30.6928 69.5897 30.0018 70.1633 28.1649 70.4733C26.8338 70.6985 26.1778 70.5186 25.4839 70.3281C24.9801 70.1902 24.4604 70.047 23.6792 70.0613C22.898 70.047 22.3783 70.1902 21.8745 70.3281C21.1806 70.5186 20.5246 70.6989 19.1935 70.4733C17.3566 70.1629 16.6655 69.5897 16.4803 69.3992C16.7002 68.8146 17.7739 65.7555 18.2545 60.6555C18.4907 58.152 18.4576 56.1286 18.2373 54.6507C17.9534 52.7501 17.4818 51.7217 17.4818 51.7217C17.4818 51.7217 17.7143 52.8203 17.9301 54.7208C17.9909 55.2605 18.0342 55.8728 18.0525 56.5525C18.0554 56.6797 18.0586 56.8095 18.0599 56.9412C18.0701 57.7861 18.0436 58.7264 17.9697 59.754H17.9681C17.964 59.8058 17.5275 64.9943 15.5188 67.9461L15.4891 67.9898L15.4878 68.0424C15.4874 68.0706 15.4805 68.6976 16.1891 69.1548C16.1401 69.2907 16.1107 69.3621 16.1091 69.367L16.074 69.4543L16.1254 69.533C16.136 69.5497 16.2654 69.7386 16.6354 69.9777C16.7255 70.0356 16.8303 70.0972 16.9511 70.1592C17.4121 70.3978 18.1068 70.654 19.1348 70.8274C19.5949 70.9049 19.9825 70.9363 20.3202 70.9363C20.4283 70.9363 20.5311 70.9335 20.6299 70.9273C20.7559 70.9196 20.875 70.9078 20.988 70.8927C21.3564 70.8429 21.666 70.758 21.9708 70.6744C22.4729 70.5361 22.9469 70.4072 23.6767 70.4203H23.6841C24.4139 70.4072 24.8879 70.5361 25.3901 70.6744C25.6948 70.758 26.0044 70.8429 26.3728 70.8927C26.4009 70.8963 26.4307 70.8992 26.4597 70.9029C26.5466 70.9131 26.6359 70.9216 26.7306 70.9273C26.8293 70.9335 26.9321 70.9363 27.0402 70.9363C27.378 70.9363 27.7655 70.9053 28.2256 70.8274C29.2536 70.654 29.9484 70.3974 30.4093 70.1592C30.4999 70.1127 30.5815 70.0662 30.6545 70.0217C30.679 70.0066 30.7022 69.9919 30.7251 69.9777C31.0951 69.7386 31.2244 69.5497 31.235 69.533L31.2864 69.4543L31.2513 69.367C31.2497 69.3621 31.2203 69.2903 31.1714 69.1548C31.8795 68.6976 31.873 68.0706 31.8726 68.0424L31.8714 67.9898L31.8416 67.9461C29.8329 64.9943 29.3968 59.8062 29.3923 59.754H29.3907C29.3165 58.7264 29.2904 57.7861 29.3006 56.9412C29.3018 56.8099 29.3046 56.6801 29.3079 56.5525C29.3246 55.8724 29.3679 55.2605 29.4287 54.7208ZM15.8489 68.0967C16.4567 67.1882 16.9205 66.0982 17.2734 65.0114C16.9176 66.8431 16.5358 68.1248 16.3098 68.8028C15.9341 68.5295 15.8623 68.2133 15.8489 68.0967ZM31.5095 68.0967C31.4957 68.2133 31.4239 68.5295 31.0486 68.8028C30.8226 68.1248 30.4407 66.8431 30.085 65.0114C30.4379 66.0986 30.9017 67.1882 31.5095 68.0967Z" fill="#595653"/>
<path d="M18.0546 58.7638C18.0338 58.7903 18.0118 58.8164 17.9873 58.8421C17.4615 59.3798 16.0137 59.5303 15.3965 59.3027C14.929 59.1305 12.946 57.3307 11.5379 55.989C11.5362 55.9874 11.5358 55.987 11.5342 55.9853C11.5468 55.9817 11.5595 55.978 11.5725 55.9735C11.5978 55.9653 11.6243 55.9564 11.6517 55.9478C11.6655 55.9433 11.6798 55.938 11.6945 55.9331C12.0421 55.8062 12.5193 55.5647 13.1113 55.2164C13.3173 55.0952 13.5086 54.9741 13.6848 54.8562C13.7093 54.8398 13.7334 54.8235 13.757 54.8076C13.8035 54.7766 13.848 54.7456 13.8912 54.7146C13.912 54.7007 13.9312 54.6865 13.9512 54.6726C13.9569 54.6689 13.9622 54.6652 13.9683 54.6608C14.0104 54.6306 14.0524 54.6004 14.0932 54.5698C14.1352 54.5388 14.1768 54.5078 14.2164 54.4768C14.251 54.4503 14.2849 54.4242 14.3183 54.3985C14.4195 54.3193 14.5133 54.2426 14.5998 54.168C14.6329 54.1398 14.6647 54.1125 14.6957 54.0852C14.7112 54.0717 14.7267 54.0578 14.7414 54.0444C14.7569 54.0305 14.7716 54.017 14.7858 54.0044C14.8152 53.9779 14.8434 53.9518 14.8707 53.9261C14.9025 53.8971 14.9335 53.8677 14.9621 53.8396C14.991 53.8122 15.0184 53.7849 15.0441 53.7592C15.0575 53.7458 15.0698 53.7335 15.0824 53.7209C15.0853 53.718 15.0881 53.7152 15.0906 53.7119C15.1016 53.7009 15.1126 53.6899 15.1232 53.6789C15.1334 53.6687 15.144 53.6576 15.1534 53.647C15.1636 53.6368 15.1746 53.6242 15.1881 53.6107C15.2754 53.5177 15.419 53.3562 15.5438 53.1861C15.5446 53.1844 15.5454 53.184 15.5458 53.1832C15.5466 53.1816 15.5479 53.1804 15.5495 53.1787C15.5613 53.2195 15.574 53.2615 15.5862 53.3056C15.5989 53.3501 15.6119 53.3957 15.6262 53.4431V53.4439C15.6397 53.4904 15.6543 53.5389 15.669 53.5887C15.6764 53.614 15.6837 53.6397 15.6911 53.6646C15.7066 53.7148 15.7212 53.7666 15.7367 53.818C15.7522 53.8706 15.7686 53.9228 15.7841 53.9754C15.8004 54.028 15.8167 54.0811 15.8322 54.1333C15.8404 54.159 15.8485 54.1859 15.8567 54.2124C15.864 54.2353 15.8705 54.2581 15.8779 54.281C15.8918 54.3258 15.906 54.3719 15.9199 54.416C15.9407 54.4833 15.9619 54.549 15.9827 54.6122C15.9962 54.6542 16.0101 54.6958 16.0235 54.7362C16.1071 54.9896 16.183 55.1976 16.2352 55.3053C16.4466 55.7349 16.7431 56.711 16.6909 56.9701C16.6929 56.9636 16.6974 56.9472 16.7044 56.9215C16.706 56.9134 16.7089 56.904 16.7109 56.8934C16.7125 56.8869 16.7146 56.8795 16.7162 56.8714C16.7182 56.8616 16.7207 56.8514 16.7227 56.8412C16.7227 56.8395 16.7235 56.8383 16.7235 56.8359C16.7256 56.8261 16.7272 56.8167 16.7293 56.8057C16.7313 56.7967 16.7329 56.7865 16.735 56.7763C16.737 56.7608 16.7403 56.7445 16.7431 56.7278C16.7468 56.7041 16.7505 56.6784 16.7541 56.6519C16.7558 56.6393 16.757 56.6274 16.7594 56.6152C16.7603 56.6087 16.7611 56.6017 16.7615 56.5952C16.7623 56.5842 16.7635 56.5732 16.7643 56.5613C16.768 56.5258 16.7717 56.4883 16.7741 56.4492C16.7758 56.4255 16.777 56.401 16.7778 56.3761C16.7904 56.0453 16.7533 55.6068 16.5628 55.1454C16.5445 55.0997 16.5192 55.0324 16.4898 54.9475C16.4816 54.9231 16.4723 54.8974 16.4633 54.87C16.4449 54.8154 16.4249 54.7554 16.4033 54.6914C16.3931 54.6595 16.3821 54.6265 16.3707 54.5922C16.3397 54.4964 16.3066 54.3923 16.2715 54.2834C16.2613 54.2508 16.2507 54.2177 16.2405 54.1851C16.2197 54.1186 16.1985 54.0509 16.1769 53.9828C16.1667 53.9489 16.1557 53.9146 16.1451 53.8808C16.0888 53.6984 16.0329 53.5145 15.9803 53.3419C16.0378 52.7129 16.1104 51.7155 16.4788 50.4802C16.4788 50.4802 17.6757 52.6929 17.7989 53.6825C17.8837 54.3634 18.1872 55.495 18.2203 56.8351C18.237 57.4429 18.197 58.0935 18.0546 58.7638Z" fill="white"/>
<path d="M16.5636 55.1451C16.5453 55.0994 16.52 55.0321 16.4906 54.9473C16.4824 54.9228 16.4731 54.8971 16.4641 54.8698C16.4457 54.8151 16.4257 54.7552 16.4041 54.6911C16.3939 54.6593 16.3829 54.6262 16.3715 54.592C16.3405 54.4961 16.3074 54.3921 16.2724 54.2832C16.2622 54.2505 16.2515 54.2175 16.2413 54.1849C16.2205 54.1184 16.1993 54.0506 16.1777 53.9825C16.1675 53.9487 16.1565 53.9144 16.1459 53.8805C16.0896 53.6982 16.0337 53.5142 15.9811 53.3416C16.0386 52.7126 16.1112 51.7152 16.4796 50.48L16.3674 50.0015C16.0957 50.4461 15.8787 51.561 15.7477 52.3842L15.7934 52.6996C15.7934 52.6996 15.7188 52.8909 15.5454 53.1834C15.5462 53.1817 15.5474 53.1805 15.5491 53.1789C15.5609 53.2197 15.5736 53.2617 15.5858 53.3058C15.5984 53.3502 15.6123 53.3959 15.6258 53.4432V53.444C15.6396 53.4914 15.6539 53.5391 15.6686 53.5889C15.6759 53.6142 15.6833 53.6399 15.6906 53.6647C15.7061 53.7149 15.7208 53.7667 15.7363 53.8181C15.7518 53.8707 15.7681 53.923 15.7836 53.9756C15.8 54.0282 15.8163 54.0812 15.8318 54.1335C15.8399 54.1592 15.8481 54.1861 15.8563 54.2126C15.8636 54.2354 15.8701 54.2583 15.8775 54.2811C15.8913 54.326 15.9056 54.3713 15.9195 54.4162C15.9407 54.4826 15.9615 54.5483 15.9823 54.6124C15.9962 54.6544 16.0096 54.696 16.0231 54.7364C16.1067 54.9897 16.1826 55.1978 16.2348 55.3055C16.4461 55.735 16.7427 56.7112 16.6905 56.9702C16.6925 56.9637 16.697 56.9474 16.7039 56.9217C16.7056 56.9135 16.7084 56.9042 16.7105 56.8936C16.7121 56.887 16.7141 56.8797 16.7158 56.8715C16.7178 56.8617 16.7203 56.8515 16.7223 56.8413C16.7223 56.8397 16.7231 56.8385 16.7231 56.836C16.7252 56.8262 16.7268 56.8169 16.7288 56.8058C16.7309 56.7969 16.7325 56.7867 16.7345 56.7765C16.7366 56.761 16.7398 56.7447 16.7427 56.7279C16.7464 56.7043 16.75 56.6786 16.7537 56.6521C16.7553 56.6394 16.7566 56.6276 16.759 56.6153C16.7598 56.6088 16.7607 56.6019 16.7611 56.5954C16.7619 56.5843 16.7631 56.5733 16.7639 56.5615C16.7676 56.526 16.7713 56.4885 16.7737 56.4493C16.7753 56.4256 16.7766 56.4012 16.7774 56.3763C16.7912 56.045 16.7541 55.6065 16.5636 55.1451Z" fill="#595653"/>
<path d="M33.4301 59.3838C33.0471 60.1576 32.6975 61.4712 32.5404 62.108C31.9191 61.392 31.0649 60.794 30.3098 60.3514C29.6506 59.9655 29.0677 59.6979 28.7797 59.5731C29.6959 57.8479 31.3782 55.0919 31.4092 55.0405C31.3909 55.0592 31.0951 55.3648 30.6831 55.8714C30.0789 55.1155 29.6751 54.2446 29.5286 53.9011C29.5286 53.8999 29.6922 52.2865 30.9478 50.6409C31.6246 51.677 32.4682 52.9918 33.1389 54.0614C33.1393 54.0618 33.1393 54.0618 33.1393 54.0622C33.7667 55.0633 34.2419 55.849 34.2864 55.991C34.3851 56.3267 33.9421 58.3501 33.4301 59.3838Z" fill="white"/>
<path d="M30.8842 50.52L30.8781 50.5351C30.9009 50.5703 30.9242 50.6054 30.9475 50.6414L30.8842 50.52Z" fill="#595653"/>
<path d="M34.636 55.8873C34.5104 55.465 31.5985 51.0357 31.0262 50.1606L30.8842 50.52L30.9471 50.6412C31.6018 51.6447 32.414 52.9085 33.0736 53.9585C33.7329 55.0086 34.2403 55.8444 34.286 55.9913C34.3852 56.3266 33.9421 58.3504 33.4302 59.3841C33.0471 60.1579 32.6979 61.4715 32.5405 62.1079C31.3774 60.7678 29.3981 59.841 28.7801 59.573C29.6898 57.8592 31.357 55.1273 31.4084 55.0424C31.3864 55.0644 31.0919 55.3688 30.6835 55.8718C30.079 55.1159 29.6751 54.2453 29.5287 53.901L29.3271 54.127C29.4467 54.4778 29.7849 55.3512 30.4502 56.1647C30.2715 56.3951 30.0782 56.6558 29.8811 56.9406C29.3243 57.7474 28.7352 58.8587 28.364 59.5807C28.3403 59.6264 28.3375 59.6803 28.355 59.7284C28.3734 59.7765 28.4113 59.8149 28.4582 59.834C28.4611 59.8349 28.4872 59.8459 28.5337 59.865C28.4582 60.3591 28.2804 61.6498 28.4105 61.9916C28.5227 62.287 29.2766 63.6882 29.5976 63.8539C29.7844 63.9505 30.3005 64.1227 30.7961 64.1219C31.0303 64.1219 31.2604 64.0835 31.448 63.9799C31.9812 63.6874 32.5009 62.9707 32.5266 62.8923C32.5274 62.8903 32.5494 62.803 32.556 62.6782C32.5796 62.6892 32.6053 62.6953 32.6318 62.6953C32.6437 62.6953 32.6571 62.6937 32.6694 62.6916C32.7387 62.677 32.7942 62.6231 32.8097 62.5529C32.8142 62.533 33.2682 60.5337 33.7569 59.5456C34.2624 58.5266 34.7792 56.3723 34.636 55.8873ZM32.1803 62.7663C32.0917 62.8968 31.6826 63.4353 31.2722 63.6605C30.8483 63.893 29.9823 63.6413 29.7669 63.5304C29.5956 63.4239 28.9025 62.2568 28.7515 61.8623C28.6842 61.6844 28.7605 60.827 28.88 60.0192C29.4242 60.2718 30.407 60.7703 31.2812 61.4405C31.5426 62.2417 31.2326 62.8095 31.2192 62.8344C31.2347 62.8246 31.4297 62.692 31.5537 62.362C31.5602 62.3473 31.6577 62.2025 31.8388 62.2025C31.8898 62.2025 31.9465 62.2135 32.011 62.2433C32.2239 62.3408 32.1949 62.6733 32.1803 62.7663Z" fill="#595653"/>
<path d="M16.6395 49.528C15.988 49.931 16.4995 50.8383 16.4995 50.8383L16.5485 50.301C16.566 50.1072 16.6697 49.9351 16.8341 49.8294C17.632 49.3142 18.8183 48.3686 19.1193 48.1259C18.9822 48.0839 18.846 48.0415 18.7106 47.9966C18.2614 48.3605 17.3068 49.1156 16.6395 49.528Z" fill="#595653"/>
<path d="M30.9802 50.5485C30.9259 50.7194 30.859 50.8385 30.859 50.8385L30.8142 50.3465L30.8101 50.3013C30.7925 50.1075 30.6889 49.9353 30.5245 49.8297C29.7266 49.3145 28.5403 48.3689 28.2393 48.1261C28.3763 48.0841 28.5126 48.0417 28.648 47.9968C29.0976 48.3607 30.0521 49.1158 30.7195 49.5282C31.1344 49.7848 31.0769 50.2474 30.9802 50.5485Z" fill="#595653"/>
<path d="M23.6795 48.4517C37.3666 48.4517 32.3816 38.6996 32.3816 38.6996C32.3816 38.6996 32.8569 31.5717 23.6795 33.8415C14.5018 31.5717 14.9774 38.6996 14.9774 38.6996C14.9774 38.6996 9.99203 48.4517 23.6795 48.4517Z" fill="#56D13D"/>
<path d="M23.6796 47.6755C16.1254 47.6755 14.2591 44.7049 14.1033 42.0427C13.9458 44.8656 15.3793 48.4522 23.6796 48.4522C31.9799 48.4522 33.413 44.8656 33.2555 42.0427C33.0997 44.7049 31.2338 47.6755 23.6796 47.6755Z" fill="#379E25"/>
<path d="M17.4781 35.9737C16.5231 36.3816 15.9271 37.3688 16.0825 38.3956C16.2139 39.2641 16.8882 40.1893 19.1196 40.2925C23.4291 40.4916 23.3622 38.2157 22.6328 36.8279C22.0503 35.7191 19.3179 35.1872 17.4781 35.9737Z" fill="white"/>
<path d="M19.8502 39.8935C20.8152 39.8935 21.5974 39.091 21.5974 38.1011C21.5974 37.1111 20.8152 36.3086 19.8502 36.3086C18.8853 36.3086 18.103 37.1111 18.103 38.1011C18.103 39.091 18.8853 39.8935 19.8502 39.8935Z" fill="#1E300C"/>
<path d="M20.2831 38.7202C20.6808 38.7202 21.0031 38.3436 21.0031 37.879C21.0031 37.4144 20.6808 37.0378 20.2831 37.0378C19.8855 37.0378 19.5631 37.4144 19.5631 37.879C19.5631 38.3436 19.8855 38.7202 20.2831 38.7202Z" fill="white"/>
<path opacity="0.35" d="M19.4341 39.2161C19.6257 39.0544 19.6081 38.7183 19.3946 38.4654C19.1812 38.2124 18.8528 38.1385 18.6612 38.3002C18.4696 38.4619 18.4872 38.7981 18.7007 39.051C18.9141 39.3039 19.2425 39.3778 19.4341 39.2161Z" fill="white"/>
<path opacity="0.15" d="M16.0626 38.2092C16.0626 38.2092 19.6663 35.4618 22.9914 38.5042C22.9914 38.5042 22.916 38.0656 22.8499 37.6385C22.8499 37.6385 19.732 34.732 16.0953 37.6716L16.0626 38.2092Z" fill="#1E1E1E"/>
<path d="M17.4781 35.9737C16.5231 36.3816 15.9271 37.3688 16.0825 38.3956C16.2139 39.2641 16.8882 40.1893 19.1196 40.2925C23.4291 40.4916 23.3622 38.2157 22.6328 36.8279C22.0503 35.7191 19.3179 35.1872 17.4781 35.9737Z" stroke="#204712" stroke-width="0.36917" stroke-miterlimit="10" stroke-linecap="round" stroke-linejoin="round"/>
<path d="M23.1171 37.5055C23.1163 37.5846 23.0645 37.6434 22.9996 37.6642C22.9515 37.6789 22.8968 37.6732 22.8499 37.6385C19.6855 35.2994 17.003 36.8744 16.1818 37.4773C16.1781 37.4794 16.1753 37.4826 16.1716 37.4839C16.0549 37.5585 15.9019 37.4639 15.9162 37.3223C16.0484 36.0198 17.8205 34.5659 20.6621 35.0363C22.8821 35.4042 23.1236 36.8552 23.1171 37.5055Z" fill="#46C130"/>
<path d="M22.9997 37.664C22.9515 37.6787 22.8969 37.673 22.85 37.6383C19.6856 35.2992 17.003 36.8743 16.1818 37.4772C16.1782 37.4792 16.1753 37.4825 16.1716 37.4837C16.0688 37.4217 16.0129 37.3854 16.0129 37.3854C16.0129 37.3854 17.0205 35.728 19.5342 35.7227C21.8517 35.7182 22.8846 37.146 22.9997 37.664Z" fill="#379E25"/>
<path d="M16.1819 37.4778C17.0031 36.874 19.6857 35.299 22.85 37.6389C22.9606 37.7205 23.116 37.643 23.1177 37.5055C23.1242 36.8548 22.8827 35.4038 20.6623 35.0363C17.8206 34.5659 16.0485 36.0198 15.9168 37.3223C15.9017 37.4688 16.0636 37.5646 16.1819 37.4778Z" stroke="#204712" stroke-width="0.36917" stroke-miterlimit="10" stroke-linecap="round" stroke-linejoin="round"/>
<path d="M16.3086 39.0977C16.3086 39.0977 18.5873 40.6107 22.4317 39.6353C22.4354 39.6345 22.0752 40.9236 19.2282 40.7302C16.3877 40.5377 16.3086 39.0977 16.3086 39.0977Z" fill="#46C130"/>
<path d="M16.3086 39.0977C16.3086 39.0977 18.5873 40.6107 22.4317 39.6353C22.4354 39.6345 22.0752 40.9236 19.2282 40.7302C16.3877 40.5377 16.3086 39.0977 16.3086 39.0977Z" stroke="#204712" stroke-width="0.36917" stroke-miterlimit="10" stroke-linecap="round" stroke-linejoin="round"/>
<path d="M22.4575 40.3264C22.0655 40.8595 21.4548 41.1859 20.8315 41.3711C20.7679 41.3866 20.5957 41.4274 20.53 41.4429C20.4635 41.4531 20.289 41.48 20.2241 41.4898C20.0532 41.5025 19.8822 41.5184 19.7109 41.509C19.6428 41.5074 19.5742 41.5041 19.5065 41.5004C19.4719 41.4984 19.4453 41.469 19.447 41.4343C19.4486 41.4037 19.4719 41.3793 19.5012 41.3752C19.6999 41.3487 19.8981 41.3307 20.0952 41.2948C20.2053 41.2797 20.3701 41.2402 20.4807 41.2177C20.5435 41.201 20.7038 41.1582 20.7646 41.1414C20.8539 41.1104 20.9547 41.0811 21.0428 41.0488C21.5323 40.8657 21.9998 40.616 22.4057 40.2827C22.4335 40.2554 22.482 40.2921 22.4575 40.3264Z" fill="#204712"/>
<path d="M29.8805 35.9737C30.8355 36.3816 31.4315 37.3688 31.2761 38.3956C31.1447 39.2641 30.4704 40.1893 28.239 40.2925C23.9295 40.4916 23.9964 38.2157 24.7258 36.8279C25.3088 35.7191 28.0407 35.1872 29.8805 35.9737Z" fill="white"/>
<path d="M27.5084 39.8935C28.4734 39.8935 29.2556 39.091 29.2556 38.1011C29.2556 37.1111 28.4734 36.3086 27.5084 36.3086C26.5435 36.3086 25.7612 37.1111 25.7612 38.1011C25.7612 39.091 26.5435 39.8935 27.5084 39.8935Z" fill="#1E300C"/>
<path d="M27.076 38.7202C27.4736 38.7202 27.796 38.3436 27.796 37.879C27.796 37.4144 27.4736 37.0378 27.076 37.0378C26.6783 37.0378 26.356 37.4144 26.356 37.879C26.356 38.3436 26.6783 38.7202 27.076 38.7202Z" fill="white"/>
<path opacity="0.35" d="M28.6565 39.0512C28.8699 38.7983 28.8876 38.4622 28.6959 38.3005C28.5043 38.1388 28.1759 38.2127 27.9625 38.4656C27.7491 38.7186 27.7314 39.0547 27.923 39.2164C28.1146 39.3781 28.443 39.3042 28.6565 39.0512Z" fill="white"/>
<path opacity="0.15" d="M31.296 38.2092C31.296 38.2092 27.6923 35.4618 24.3672 38.5042C24.3672 38.5042 24.4427 38.0656 24.5087 37.6385C24.5087 37.6385 27.6266 34.732 31.2634 37.6716L31.296 38.2092Z" fill="#1E1E1E"/>
<path d="M29.8805 35.9737C30.8355 36.3816 31.4315 37.3688 31.2761 38.3956C31.1447 39.2641 30.4704 40.1893 28.239 40.2925C23.9295 40.4916 23.9964 38.2157 24.7258 36.8279C25.3088 35.7191 28.0407 35.1872 29.8805 35.9737Z" stroke="#204712" stroke-width="0.36917" stroke-miterlimit="10" stroke-linecap="round" stroke-linejoin="round"/>
<path d="M24.2418 37.5055C24.2426 37.5846 24.294 37.6434 24.3593 37.6642C24.4074 37.6789 24.4621 37.6732 24.509 37.6385C27.6734 35.2994 30.356 36.8744 31.1772 37.4773C31.1808 37.4794 31.1837 37.4826 31.1874 37.4839C31.304 37.5585 31.457 37.4639 31.4427 37.3223C31.3105 36.0198 29.5385 34.5659 26.6968 35.0363C24.4768 35.4042 24.2353 36.8552 24.2418 37.5055Z" fill="#46C130"/>
<path d="M24.3591 37.664C24.4073 37.6787 24.4619 37.673 24.5088 37.6383C27.6732 35.2992 30.3558 36.8743 31.177 37.4772C31.1806 37.4792 31.1835 37.4825 31.1872 37.4837C31.29 37.4217 31.3459 37.3854 31.3459 37.3854C31.3459 37.3854 30.3383 35.728 27.8246 35.7227C25.5075 35.7182 24.4742 37.146 24.3591 37.664Z" fill="#379E25"/>
<path d="M31.177 37.4778C30.3558 36.874 27.6732 35.299 24.5088 37.6389C24.3983 37.7205 24.2428 37.643 24.2412 37.5055C24.2347 36.8548 24.4762 35.4038 26.6966 35.0363C29.5383 34.5659 31.3103 36.0198 31.4421 37.3223C31.4572 37.4688 31.2953 37.5646 31.177 37.4778Z" stroke="#204712" stroke-width="0.36917" stroke-miterlimit="10" stroke-linecap="round" stroke-linejoin="round"/>
<path d="M31.0502 39.0977C31.0502 39.0977 28.7714 40.6107 24.927 39.6353C24.9234 39.6345 25.2836 40.9236 28.1306 40.7302C30.9714 40.5377 31.0502 39.0977 31.0502 39.0977Z" fill="#46C130"/>
<path d="M31.0502 39.0977C31.0502 39.0977 28.7714 40.6107 24.927 39.6353C24.9234 39.6345 25.2836 40.9236 28.1306 40.7302C30.9714 40.5377 31.0502 39.0977 31.0502 39.0977Z" stroke="#204712" stroke-width="0.36917" stroke-miterlimit="10" stroke-linecap="round" stroke-linejoin="round"/>
<path d="M24.9527 40.2836C25.5716 40.7662 26.3058 41.0905 27.0715 41.2496C27.331 41.3092 27.5941 41.3361 27.858 41.3757C27.8923 41.3814 27.9156 41.414 27.9094 41.4483C27.9045 41.4773 27.8805 41.4981 27.8523 41.5005C27.7503 41.5083 27.6475 41.5132 27.5452 41.5164C26.8251 41.5213 26.086 41.317 25.4932 40.9029C25.2672 40.7434 25.058 40.5586 24.9013 40.3265C24.8801 40.2943 24.9229 40.2555 24.9527 40.2836Z" fill="#204712"/>
<path d="M30.9457 42.4759C30.9228 42.5289 30.8661 42.6399 30.8408 42.6954C30.84 42.697 30.8392 42.6982 30.8388 42.6999C29.4734 45.165 26.214 45.4147 23.6799 45.4485C23.378 45.4388 22.9224 45.4428 22.625 45.4233C22.1922 45.4012 21.7524 45.3678 21.3216 45.3156C21.1421 45.3001 20.7383 45.2283 20.5523 45.1997C19.0829 44.9207 17.5552 44.3108 16.7164 43.0156C16.6663 42.9491 16.6308 42.8745 16.5888 42.8039L16.5276 42.6962C16.5276 42.6962 16.5267 42.6954 16.5259 42.6933L16.4741 42.5848C16.4403 42.5057 16.3677 42.3988 16.3901 42.3111C16.4027 42.2083 16.4986 42.1198 16.5998 42.1006C16.6328 42.0961 16.6646 42.0953 16.6981 42.1051C16.7173 42.108 16.7307 42.119 16.7511 42.1235C17.2186 42.3323 17.6939 42.5347 18.1679 42.728C19.9265 43.4125 21.7732 43.9633 23.6795 43.9759C25.5846 43.9575 27.4427 43.4509 29.2017 42.7582C29.6321 42.5803 30.0649 42.3964 30.4872 42.1969C30.5308 42.1777 30.6446 42.123 30.687 42.1133C30.7764 42.0957 30.8804 42.1369 30.9338 42.2165C30.9546 42.2438 30.9702 42.2764 30.9759 42.3095C30.9914 42.3633 30.9693 42.4257 30.9457 42.4759Z" fill="white"/>
<path d="M30.9457 42.4759C30.9228 42.5289 30.8661 42.6399 30.8408 42.6954C30.84 42.6954 30.8392 42.6962 30.8388 42.6962C23.0105 46.5439 16.5276 42.6962 16.5276 42.6962C16.5276 42.6962 16.5267 42.6954 16.5259 42.6933L16.4741 42.5848C16.4403 42.5057 16.3677 42.3988 16.3901 42.3111C16.4027 42.2083 16.4986 42.1198 16.5998 42.1006C16.6328 42.0961 16.6646 42.0953 16.6981 42.1051C16.7173 42.108 16.7307 42.119 16.7511 42.1235C17.2186 42.3323 17.6939 42.5347 18.1679 42.728C19.9265 43.4125 21.7732 43.9633 23.6795 43.9759C25.5846 43.9575 27.4427 43.4509 29.2017 42.7582C29.6321 42.5803 30.0649 42.3964 30.4872 42.1969C30.5308 42.1777 30.6446 42.123 30.687 42.1133C30.7764 42.0957 30.8804 42.1369 30.9338 42.2165C30.9546 42.2438 30.9702 42.2764 30.9759 42.3095C30.9914 42.3633 30.9693 42.4257 30.9457 42.4759Z" fill="#C1BFBF"/>
<path d="M30.5811 41.2495C30.4297 41.2642 30.2723 41.3262 30.1336 41.3809C29.8884 41.4731 29.6286 41.5779 29.3797 41.6579C28.8939 41.8255 28.3407 41.9834 27.8418 42.1038C26.4352 42.433 24.9911 42.6634 23.5507 42.6618C22.1898 42.6263 20.8387 42.4403 19.5089 42.1331C18.826 41.972 18.117 41.7586 17.4667 41.498C17.3909 41.4678 17.1632 41.3768 17.0931 41.3487C16.7549 41.2018 16.3392 41.232 16.0357 41.4453C15.5955 41.7317 15.4213 42.3269 15.642 42.803C15.671 42.8703 15.7367 43.0106 15.7644 43.0775C15.833 43.2007 15.9031 43.3537 15.9806 43.4724L16.1409 43.7265C16.2168 43.824 16.3286 43.9892 16.4106 44.0867C16.5097 44.1952 16.6048 44.3201 16.7088 44.4233C16.7989 44.5061 16.9356 44.6546 17.0298 44.7362C18.8558 46.3222 21.336 46.782 23.6792 46.8011C24.0047 46.7877 24.4943 46.7865 24.8141 46.7591C26.7395 46.6135 28.7038 46.1007 30.2144 44.832C30.351 44.7235 30.5244 44.5502 30.6513 44.4245C30.7508 44.3189 30.852 44.1985 30.9482 44.0871C31.02 44.0035 31.144 43.8163 31.2162 43.7253C31.3101 43.5797 31.4443 43.359 31.5189 43.2068L31.5871 43.073L31.647 42.9355L31.7082 42.7981L31.7237 42.7634C31.7376 42.714 31.7637 42.6577 31.7739 42.6084C31.964 41.8875 31.3195 41.161 30.5811 41.2495ZM30.9458 42.4758C30.9221 42.5305 30.863 42.6455 30.8389 42.6993C29.4735 45.1645 26.2137 45.4142 23.68 45.448C23.3781 45.4382 22.9225 45.4423 22.6251 45.4227C22.1923 45.4007 21.7525 45.3672 21.3217 45.315C21.1422 45.2995 20.7384 45.2277 20.5524 45.1992C19.083 44.9201 17.5553 44.3103 16.7165 43.0151C16.6664 42.9486 16.6309 42.8739 16.5889 42.8034L16.5277 42.6957L16.4746 42.5843C16.4408 42.5052 16.3682 42.3983 16.3906 42.3106C16.4033 42.2078 16.4991 42.1193 16.6003 42.1001C16.6333 42.0956 16.6651 42.0948 16.6986 42.1046C16.7178 42.1074 16.7312 42.1184 16.7516 42.1229C17.2191 42.3318 17.6944 42.5341 18.1684 42.7275C19.927 43.412 21.7737 43.9627 23.68 43.9754C25.5851 43.957 27.4432 43.4504 29.2023 42.7577C29.6326 42.5798 30.0655 42.3958 30.4877 42.1964C30.5313 42.1772 30.6451 42.1225 30.6876 42.1127C30.7769 42.0952 30.8809 42.1364 30.9344 42.2159C30.9552 42.2433 30.9707 42.2759 30.9764 42.3089C30.9915 42.3632 30.9694 42.4256 30.9458 42.4758Z" fill="#FB4E0A"/>
<path d="M23.6836 44.6391V43.8154" stroke="#4C3A27" stroke-width="0.147669" stroke-miterlimit="10" stroke-linecap="round" stroke-linejoin="round"/>
<path d="M22.0944 44.5727V43.6809" stroke="#4C3A27" stroke-width="0.147669" stroke-miterlimit="10" stroke-linecap="round" stroke-linejoin="round"/>
<path d="M20.5984 44.3799V43.2446" stroke="#4C3A27" stroke-width="0.147669" stroke-miterlimit="10" stroke-linecap="round" stroke-linejoin="round"/>
<path d="M19.1195 44.0477V43.0984" stroke="#4C3A27" stroke-width="0.147669" stroke-miterlimit="10" stroke-linecap="round" stroke-linejoin="round"/>
<path d="M17.7212 43.5732V42.5391" stroke="#4C3A27" stroke-width="0.147669" stroke-miterlimit="10" stroke-linecap="round" stroke-linejoin="round"/>
<path d="M25.2651 44.5727V43.6809" stroke="#4C3A27" stroke-width="0.147669" stroke-miterlimit="10" stroke-linecap="round" stroke-linejoin="round"/>
<path d="M26.7606 44.3799V43.2446" stroke="#4C3A27" stroke-width="0.147669" stroke-miterlimit="10" stroke-linecap="round" stroke-linejoin="round"/>
<path d="M28.2394 44.0477V43.0984" stroke="#4C3A27" stroke-width="0.147669" stroke-miterlimit="10" stroke-linecap="round" stroke-linejoin="round"/>
<path d="M29.6378 43.5732V42.5391" stroke="#4C3A27" stroke-width="0.147669" stroke-miterlimit="10" stroke-linecap="round" stroke-linejoin="round"/>
<path d="M23.6836 45.43V44.606" stroke="#4C3A27" stroke-width="0.147669" stroke-miterlimit="10" stroke-linecap="round" stroke-linejoin="round"/>
<path d="M22.0944 45.3636V44.4714" stroke="#4C3A27" stroke-width="0.147669" stroke-miterlimit="10" stroke-linecap="round" stroke-linejoin="round"/>
<path d="M20.5984 45.1704V44.0352" stroke="#4C3A27" stroke-width="0.147669" stroke-miterlimit="10" stroke-linecap="round" stroke-linejoin="round"/>
<path d="M19.1195 44.838V43.8892" stroke="#4C3A27" stroke-width="0.147669" stroke-miterlimit="10" stroke-linecap="round" stroke-linejoin="round"/>
<path d="M17.7212 44.1887V43.3296" stroke="#4C3A27" stroke-width="0.147669" stroke-miterlimit="10" stroke-linecap="round" stroke-linejoin="round"/>
<path d="M25.2651 45.3636V44.4714" stroke="#4C3A27" stroke-width="0.147669" stroke-miterlimit="10" stroke-linecap="round" stroke-linejoin="round"/>
<path d="M26.7606 45.1704V44.0352" stroke="#4C3A27" stroke-width="0.147669" stroke-miterlimit="10" stroke-linecap="round" stroke-linejoin="round"/>
<path d="M28.2394 44.838V43.8892" stroke="#4C3A27" stroke-width="0.147669" stroke-miterlimit="10" stroke-linecap="round" stroke-linejoin="round"/>
<path d="M29.6378 44.0647V43.3296" stroke="#4C3A27" stroke-width="0.147669" stroke-miterlimit="10" stroke-linecap="round" stroke-linejoin="round"/>
<path d="M30.5757 43.1277C30.5757 43.1277 28.124 44.6399 23.6836 44.6399C19.2432 44.6399 16.7915 43.1277 16.7915 43.1277" stroke="#4C3A27" stroke-width="0.147669" stroke-miterlimit="10" stroke-linecap="round" stroke-linejoin="round"/>
<path d="M31.7744 42.1172C31.7642 42.1666 31.7381 42.2229 31.7242 42.2722L31.7087 42.3069L31.6476 42.4444L31.5876 42.5819L31.5195 42.7157C31.4448 42.8678 31.3106 43.0885 31.2168 43.2342C31.1446 43.3251 31.0206 43.5124 30.9488 43.596C30.8529 43.7074 30.7517 43.8277 30.6518 43.9334C30.5249 44.059 30.3511 44.2324 30.2149 44.3409C28.7043 45.6092 26.7401 46.1223 24.8146 46.268C24.4948 46.2953 24.0053 46.2969 23.6797 46.31C21.3361 46.2908 18.8563 45.8307 17.0304 44.245C16.9357 44.163 16.7991 44.0145 16.7093 43.9321C16.6053 43.8289 16.5098 43.7041 16.4111 43.5956C16.3291 43.4981 16.2178 43.3329 16.1415 43.2354L15.9812 42.9812C15.9036 42.8625 15.8335 42.7095 15.7649 42.5863C15.7368 42.519 15.6711 42.3787 15.6426 42.3118C15.6136 42.249 15.5916 42.1841 15.5761 42.118C15.5243 42.3444 15.5418 42.5868 15.6426 42.8046C15.6715 42.8719 15.7372 43.0122 15.7649 43.0791C15.8335 43.2023 15.9036 43.3553 15.9812 43.474L16.1415 43.7282C16.2173 43.8257 16.3291 43.9909 16.4111 44.0884C16.5102 44.1969 16.6053 44.3217 16.7093 44.4249C16.7995 44.5077 16.9361 44.6562 17.0304 44.7378C18.8563 46.3239 21.3365 46.7836 23.6797 46.8028C24.0053 46.7893 24.4948 46.7881 24.8146 46.7608C26.7401 46.6151 28.7043 46.1024 30.2149 44.8337C30.3515 44.7252 30.5249 44.5518 30.6518 44.4261C30.7513 44.3205 30.8525 44.2001 30.9488 44.0888C31.0206 44.0052 31.1446 43.8179 31.2168 43.7269C31.3106 43.5813 31.4448 43.3606 31.5195 43.2085L31.5876 43.0746L31.6476 42.9372L31.7087 42.7997L31.7242 42.765C31.7381 42.7157 31.7642 42.6594 31.7744 42.61C31.8197 42.4379 31.8168 42.2653 31.7777 42.1038C31.7761 42.1082 31.7756 42.1127 31.7744 42.1172Z" fill="#D13100"/>
<path d="M30.976 41.8168C30.9703 41.7838 30.9548 41.7511 30.934 41.7238C30.8809 41.6442 30.7765 41.6026 30.6872 41.6206C30.6443 41.6304 30.5305 41.6846 30.4873 41.7042C30.0651 41.9037 29.6322 42.0873 29.2019 42.2655C27.4433 42.9582 25.5847 43.4645 23.6796 43.4832C21.7733 43.4706 19.9266 42.9199 18.168 42.2353C17.694 42.042 17.2183 41.8396 16.7512 41.6308C16.7304 41.6263 16.7174 41.6153 16.6982 41.6124C16.6652 41.6026 16.6333 41.6035 16.5999 41.6079C16.4987 41.6271 16.4029 41.7156 16.3902 41.8184C16.3682 41.9061 16.4404 42.0134 16.4742 42.0922L16.4991 42.144C16.5297 42.1228 16.5644 42.1068 16.5999 42.1003C16.6329 42.0958 16.6648 42.095 16.6982 42.1048C16.7174 42.1077 16.7308 42.1187 16.7512 42.1232C17.2187 42.332 17.694 42.5344 18.168 42.7277C19.9266 43.4122 21.7733 43.963 23.6796 43.9756C25.5847 43.9572 27.4428 43.4506 29.2019 42.7579C29.6322 42.5801 30.0651 42.3961 30.4873 42.1966C30.5309 42.1774 30.6447 42.1228 30.6872 42.113C30.7467 42.1011 30.812 42.1158 30.8654 42.1505C30.8932 42.0938 30.9287 42.0228 30.9458 41.9832C30.9695 41.9327 30.9915 41.8698 30.976 41.8168Z" fill="#D13100"/>
<path d="M23.6799 45.4488C26.214 45.4146 29.4738 45.1653 30.8391 42.6998C30.8636 42.6463 30.9228 42.5313 30.9464 42.4762C30.9693 42.4256 30.9921 42.3632 30.9758 42.3098C30.9701 42.2767 30.955 42.2441 30.9342 42.2168C30.8812 42.1372 30.7771 42.0956 30.6874 42.1135C30.6446 42.1233 30.5307 42.1776 30.4871 42.1968C30.0649 42.3962 29.6325 42.5802 29.2013 42.7577C27.4427 43.4504 25.5845 43.957 23.6795 43.975C21.7736 43.9627 19.9264 43.412 18.1682 42.7271C17.6942 42.5341 17.2181 42.3314 16.7511 42.1225C16.7303 42.118 16.7168 42.107 16.698 42.1042C16.665 42.0944 16.6328 42.0952 16.5993 42.0993C16.4985 42.1184 16.4023 42.2078 16.39 42.3102C16.368 42.3983 16.4406 42.5052 16.4741 42.5839L16.5271 42.6957L16.5883 42.8034C16.6307 42.8743 16.6658 42.949 16.716 43.0151C17.5551 44.3103 19.0828 44.9197 20.5518 45.1996C20.7378 45.2286 21.1417 45.2999 21.3216 45.3154C21.752 45.3677 22.1921 45.4007 22.6249 45.4231C22.9223 45.4423 23.378 45.439 23.6799 45.4488ZM23.6799 46.8028C21.3363 46.784 18.856 46.3235 17.0309 44.7378C16.9359 44.6554 16.7992 44.5073 16.7094 44.4245C16.6058 44.3213 16.5104 44.1961 16.4112 44.088C16.3288 43.9901 16.2179 43.8248 16.1416 43.7273L15.9817 43.4732C15.9038 43.3545 15.8344 43.2019 15.7651 43.0783C15.7369 43.0114 15.6712 42.8711 15.6431 42.8038C15.4224 42.3273 15.5962 41.7321 16.0364 41.4462C16.3394 41.2328 16.7555 41.2026 17.0937 41.3491C17.1643 41.3776 17.3915 41.4682 17.467 41.4984C18.1176 41.7591 18.8266 41.9728 19.5091 42.1339C20.8386 42.4407 22.1901 42.6267 23.5505 42.6622C24.9918 42.6634 26.4355 42.4334 27.842 42.1038C28.3414 41.9834 28.8949 41.8255 29.3804 41.6575C29.6292 41.5779 29.8891 41.4727 30.1342 41.3809C30.2729 41.3258 30.43 41.2642 30.5813 41.2495C31.3197 41.161 31.9642 41.8871 31.7741 42.61C31.7639 42.6598 31.7382 42.7157 31.724 42.765L31.7085 42.8001L31.6473 42.9368L31.5877 43.0746L31.5192 43.208C31.4449 43.3606 31.3107 43.5809 31.2169 43.7265C31.1443 43.8171 31.0207 44.0052 30.9489 44.0884C30.8526 44.1997 30.7514 44.3197 30.6519 44.4261C30.525 44.5514 30.3517 44.7243 30.2146 44.8333C28.7044 46.1015 26.7406 46.6147 24.8151 46.7608C24.4949 46.7877 24.005 46.7893 23.6799 46.8028Z" stroke="#4C3A27" stroke-width="0.36917" stroke-miterlimit="10" stroke-linecap="round" stroke-linejoin="round"/>
<path d="M15.1705 38.1625C15.1537 38.3844 15.1484 38.6088 15.1648 38.8311C15.179 39.0632 15.2223 39.2818 15.2574 39.5148C15.2655 39.5568 15.2366 39.598 15.1937 39.6033C15.1284 39.6111 15.1032 39.5401 15.0685 39.4981C14.9779 39.3667 14.9167 39.2154 14.8719 39.0628C14.789 38.7519 14.7552 38.4272 14.8054 38.1074C14.8515 37.8704 15.1954 37.9226 15.1705 38.1625Z" fill="#204712"/>
<path d="M32.5534 38.1087C32.6064 38.4595 32.5664 38.8193 32.4575 39.1554C32.4388 39.2146 32.4114 39.277 32.3857 39.3329C32.3564 39.3892 32.3266 39.4475 32.2899 39.4993C32.2527 39.5523 32.2026 39.6437 32.1283 39.5891C32.1055 39.5711 32.0965 39.5426 32.1014 39.516C32.1361 39.2831 32.1793 39.0645 32.194 38.8323C32.2103 38.6104 32.2054 38.3856 32.1883 38.1637C32.1642 37.9235 32.5069 37.8725 32.5534 38.1087Z" fill="#204712"/>
<path d="M23.6795 48.4517C37.3666 48.4517 32.3816 38.6996 32.3816 38.6996C32.3816 38.6996 32.8569 31.5717 23.6795 33.8415C14.5018 31.5717 14.9774 38.6996 14.9774 38.6996C14.9774 38.6996 9.99203 48.4517 23.6795 48.4517Z" stroke="#204712" stroke-width="0.36917" stroke-miterlimit="10" stroke-linecap="round" stroke-linejoin="round"/>
<path d="M34.1089 39.6358C34.1089 39.6358 33.9302 38.8489 33.4207 37.891C32.7888 36.7007 31.6457 35.2476 29.704 34.7177C27.3677 34.0805 25.4688 34.364 24.4624 34.6239C24.2054 34.6895 23.9427 34.723 23.6796 34.723C23.416 34.723 23.1533 34.6899 22.8963 34.6239C21.8899 34.364 19.9918 34.0805 17.6556 34.7177C14.1514 35.6739 13.2498 39.6358 13.2498 39.6358C13.2498 39.6358 13.2233 38.2773 14.113 36.7549C15.2463 34.8144 17.8673 32.6074 23.9264 32.6074C30.9208 32.6074 33.127 35.5491 33.8119 37.6259C34.1872 38.7591 34.1089 39.6358 34.1089 39.6358Z" fill="white"/>
<path d="M33.2465 36.7542C30.7479 33.4324 26.4295 33.5034 25.6422 33.6474C24.582 33.8415 23.6796 33.9709 23.6796 33.9709C23.6796 33.9709 22.7772 33.8415 21.717 33.6474C20.9301 33.5034 16.6113 33.4324 14.1127 36.7542C13.223 38.2766 13.2495 39.6351 13.2495 39.6351C13.2495 39.6351 14.151 35.6732 17.6552 34.717C19.9914 34.0798 21.8896 34.3633 22.896 34.6231C23.153 34.6888 23.4157 34.7223 23.6792 34.7223C23.9427 34.7223 24.2054 34.6892 24.4624 34.6231C25.4688 34.3633 27.3669 34.0798 29.7032 34.717C33.2074 35.6732 34.1089 39.6351 34.1089 39.6351C34.1089 39.6351 34.1362 38.277 33.2465 36.7542Z" fill="#C1BFBF"/>
<path d="M34.1089 39.6357C34.1089 39.6357 33.9303 38.8488 33.4208 37.8909L32.8337 36.3567C32.8337 36.3567 32.8692 36.3587 32.9321 36.3648C33.0397 36.4897 33.1446 36.619 33.2466 36.7548C33.4481 37.0229 33.6378 37.3125 33.812 37.6262C34.1873 38.759 34.1089 39.6357 34.1089 39.6357Z" fill="#C1BFBF"/>
<path d="M34.6187 44.0619C34.5212 40.3554 33.5079 35.598 29.2515 34.7997C27.7018 34.4644 26.0692 34.4187 24.5252 34.8038C23.9748 34.9498 23.3793 34.9502 22.8298 34.8025C21.4722 34.424 20.0342 34.2649 18.6537 34.5982C15.2678 35.4051 13.4615 38.1541 12.9222 41.447C12.8006 42.1466 12.7191 42.8581 12.6868 43.5707C12.6864 43.6009 12.6611 43.625 12.6309 43.6238C12.6044 43.6225 12.5836 43.6025 12.5804 43.5773C12.5563 43.3949 12.5445 43.2146 12.5383 43.0327C12.5196 42.4872 12.5543 41.941 12.6289 41.4009C13.0523 38.4332 14.6372 35.7143 17.518 34.581C19.2285 33.8602 21.167 33.9353 22.9244 34.4342C23.4188 34.5631 23.9365 34.5639 24.4305 34.4346C24.6096 34.3893 24.7895 34.3501 24.9702 34.3167C26.4127 34.0552 27.9045 34.1184 29.3311 34.4378C29.6888 34.519 30.049 34.6112 30.3925 34.7458C31.7901 35.2676 32.9021 36.3951 33.5777 37.7038C34.4217 39.3282 34.7831 41.1639 34.817 42.9817C34.8207 43.3447 34.8145 43.7062 34.7782 44.0705C34.7615 44.1712 34.624 44.1659 34.6187 44.0619Z" fill="#595653"/>
<path d="M23.6835 30.7832C31.6309 30.7832 30.607 32.9938 30.607 32.9938C30.607 32.9938 28.4609 31.8259 23.5628 31.8259C18.6647 31.8259 16.7596 32.9934 16.7596 32.9934C16.7596 32.9934 15.7361 30.7832 23.6835 30.7832Z" fill="#5B5B5B"/>
<path d="M23.6798 31.3943C17.9394 31.3943 16.76 32.9938 16.76 32.9938C18.4403 31.8075 23.6798 31.8263 23.6798 31.8263C23.6798 31.8263 28.9194 31.8079 30.5997 32.9938C30.5997 32.9934 29.4203 31.3943 23.6798 31.3943Z" fill="#424242"/>
<path d="M23.6836 31.0887C29.4898 31.0887 30.5076 32.2685 30.6344 32.9041C30.7238 32.4908 30.6691 30.7832 23.6836 30.7832C16.6981 30.7832 16.6434 32.4908 16.7328 32.9041C16.8597 32.2685 17.8775 31.0887 23.6836 31.0887Z" fill="#757575"/>
<path d="M23.6835 30.7832C31.6309 30.7832 30.607 32.9938 30.607 32.9938C30.607 32.9938 28.4609 31.8259 23.5628 31.8259C18.6647 31.8259 16.7596 32.9934 16.7596 32.9934C16.7596 32.9934 15.7361 30.7832 23.6835 30.7832Z" stroke="#353434" stroke-width="0.333211" stroke-miterlimit="10" stroke-linecap="round" stroke-linejoin="round"/>
<path d="M23.6835 31.7908C32.4885 31.7908 31.3544 34.2396 31.3544 34.2396C31.3544 34.2396 28.9765 32.9456 23.5497 32.9456C18.123 32.9456 16.0127 34.2396 16.0127 34.2396C16.0127 34.2396 14.8782 31.7908 23.6835 31.7908Z" fill="#5B5B5B"/>
<path d="M23.6793 32.4675C17.3192 32.4675 16.0126 34.2396 16.0126 34.2396C17.874 32.9256 23.6793 32.946 23.6793 32.946C23.6793 32.946 29.4843 32.9256 31.3461 34.2396C31.3457 34.2396 30.0395 32.4675 23.6793 32.4675Z" fill="#424242"/>
<path d="M23.6836 32.1289C30.1164 32.1289 31.2439 33.4359 31.3846 34.14C31.4834 33.6819 31.423 31.7903 23.6836 31.7903C15.9442 31.7903 15.8839 33.6823 15.9826 34.14C16.1233 33.4359 17.2505 32.1289 23.6836 32.1289Z" fill="#757575"/>
<path d="M23.6835 31.7908C32.4885 31.7908 31.3544 34.2396 31.3544 34.2396C31.3544 34.2396 28.9765 32.9456 23.5497 32.9456C18.123 32.9456 16.0127 34.2396 16.0127 34.2396C16.0127 34.2396 14.8782 31.7908 23.6835 31.7908Z" stroke="#353434" stroke-width="0.36917" stroke-miterlimit="10" stroke-linecap="round" stroke-linejoin="round"/>
</g>
<path d="M41.0758 47.1619V34.263H47.2857C48.4896 34.263 49.5277 34.4596 50.3999 34.8527C51.2844 35.2458 51.9662 35.8109 52.4453 36.548C52.9244 37.2728 53.1639 38.1327 53.1639 39.1277C53.1639 40.1228 52.9244 40.9827 52.4453 41.7075C51.9662 42.4323 51.2844 42.9974 50.3999 43.4028C49.5277 43.7959 48.4896 43.9924 47.2857 43.9924H43.4898L45.4246 42.1313V47.1619H41.0758ZM45.4246 42.6104L43.4898 40.6387H47.0093C47.6113 40.6387 48.0535 40.5036 48.3361 40.2333C48.6309 39.9631 48.7783 39.5945 48.7783 39.1277C48.7783 38.6609 48.6309 38.2924 48.3361 38.0221C48.0535 37.7519 47.6113 37.6167 47.0093 37.6167H43.4898L45.4246 35.645V42.6104ZM58.5703 39.054H64.3195V42.1866H58.5703V39.054ZM58.8652 43.8819H65.3146V47.1619H54.5901V34.263H65.075V37.543H58.8652V43.8819ZM66.9887 47.1619V34.263H73.1986C74.4025 34.263 75.4405 34.4596 76.3127 34.8527C77.1972 35.2458 77.879 35.8109 78.3581 36.548C78.8372 37.2728 79.0768 38.1327 79.0768 39.1277C79.0768 40.1228 78.8372 40.9827 78.3581 41.7075C77.879 42.4323 77.1972 42.9974 76.3127 43.4028C75.4405 43.7959 74.4025 43.9924 73.1986 43.9924H69.4026L71.3375 42.1313V47.1619H66.9887ZM71.3375 42.6104L69.4026 40.6387H72.9222C73.5241 40.6387 73.9664 40.5036 74.2489 40.2333C74.5437 39.9631 74.6912 39.5945 74.6912 39.1277C74.6912 38.6609 74.5437 38.2924 74.2489 38.0221C73.9664 37.7519 73.5241 37.6167 72.9222 37.6167H69.4026L71.3375 35.645V42.6104ZM84.4832 39.054H90.2324V42.1866H84.4832V39.054ZM84.778 43.8819H91.2274V47.1619H80.503V34.263H90.9879V37.543H84.778V43.8819Z" fill="#F32508"/>
<path d="M98.426 47.1619V34.263H104.783C106.221 34.263 107.486 34.5271 108.579 35.0554C109.673 35.5713 110.526 36.3084 111.141 37.2666C111.755 38.2248 112.062 39.3673 112.062 40.694C112.062 42.033 111.755 43.1878 111.141 44.1583C110.526 45.1165 109.673 45.8597 108.579 46.3879C107.486 46.9039 106.221 47.1619 104.783 47.1619H98.426ZM102.775 43.7713H104.599C105.213 43.7713 105.748 43.6546 106.202 43.4212C106.669 43.1878 107.031 42.8438 107.289 42.3893C107.547 41.9225 107.676 41.3574 107.676 40.694C107.676 40.0429 107.547 39.4901 107.289 39.0356C107.031 38.5811 106.669 38.2371 106.202 38.0037C105.748 37.7703 105.213 37.6536 104.599 37.6536H102.775V43.7713ZM119.823 47.4567C117.845 47.4567 116.303 46.9223 115.198 45.8536C114.092 44.7848 113.539 43.2861 113.539 41.3574V34.263H117.888V41.2284C117.888 42.2112 118.066 42.9114 118.422 43.3291C118.779 43.7345 119.258 43.9372 119.86 43.9372C120.474 43.9372 120.953 43.7345 121.297 43.3291C121.653 42.9114 121.831 42.2112 121.831 41.2284V34.263H126.106V41.3574C126.106 43.2861 125.554 44.7848 124.448 45.8536C123.342 46.9223 121.801 47.4567 119.823 47.4567ZM128.1 47.1619V34.263H134.992C136.773 34.263 138.087 34.5824 138.935 35.2212C139.783 35.8477 140.206 36.6524 140.206 37.6351C140.206 38.2862 140.022 38.8698 139.654 39.3857C139.297 39.8894 138.775 40.2886 138.087 40.5835C137.399 40.8783 136.552 41.0257 135.544 41.0257L135.913 40.0306C136.92 40.0306 137.786 40.1719 138.511 40.4545C139.248 40.737 139.813 41.1485 140.206 41.6891C140.612 42.2173 140.814 42.8561 140.814 43.6055C140.814 44.7234 140.348 45.5956 139.414 46.2221C138.493 46.8486 137.141 47.1619 135.36 47.1619H128.1ZM132.375 44.1214H134.992C135.471 44.1214 135.827 44.0354 136.06 43.8634C136.306 43.6915 136.429 43.4396 136.429 43.1079C136.429 42.7763 136.306 42.5244 136.06 42.3524C135.827 42.1805 135.471 42.0945 134.992 42.0945H132.08V39.2199H134.402C134.893 39.2199 135.25 39.14 135.471 38.9803C135.704 38.8083 135.821 38.5688 135.821 38.2617C135.821 37.9423 135.704 37.7027 135.471 37.543C135.25 37.3833 134.893 37.3035 134.402 37.3035H132.375V44.1214ZM140.951 47.1619L146.59 34.263H150.865L156.504 47.1619H152.008L147.843 36.3268H149.538L145.374 47.1619H140.951ZM144.305 44.9138L145.411 41.7812H151.344L152.45 44.9138H144.305ZM157.198 47.1619V34.263H161.547V47.1619H157.198Z" fill="#3C8430"/>
</svg>
