<svg width="174" height="80" viewBox="0 0 174 80" fill="none" xmlns="http://www.w3.org/2000/svg">
<path d="M30.6758 55.4729L30.6758 52.9201L46.8433 52.9201L46.8433 55.4729L30.6758 55.4729Z" fill="#305E4D"/>
<path d="M44.2904 39.3057L46.8432 39.3057L46.8432 55.4732L44.2904 55.4732L44.2904 39.3057Z" fill="#305E4D"/>
<path d="M30.798 41.2156L32.7025 39.3111L46.9864 53.595L45.0819 55.4995L30.798 41.2156Z" fill="#305E4D"/>
<path d="M42.5887 25.6912L42.5887 29.0948L26.4212 29.0948L26.4212 25.6912L42.5887 25.6912Z" fill="#305E4D"/>
<path d="M26.4211 27.749L28.3257 25.8445L42.6096 40.1284L40.7051 42.0329L26.4211 27.749Z" fill="#305E4D"/>
<path d="M28.974 41.8589L26.4212 41.8589L26.4212 25.6914L28.974 25.6914L28.974 41.8589Z" fill="#305E4D"/>
<path d="M55.2211 52.0617H58.7422V40.8737C58.7422 37.8521 60.8303 33.8914 64.1468 33.8914C66.194 33.8914 67.2994 35.443 67.2994 38.5463V52.0617H70.8206V40.8737C70.8206 37.8521 72.9087 33.8914 76.2252 33.8914C78.2723 33.8914 79.3778 35.443 79.3778 38.5463V52.0617H82.858V37.7704C82.858 33.7281 81.3431 31.1965 77.5353 31.1965C74.2189 31.1965 71.967 33.3197 70.6978 35.8513C70.2474 32.9523 68.6506 31.1965 65.457 31.1965C62.2224 31.1965 60.0115 33.1972 58.7422 35.6472V31.4823H55.2211V52.0617Z" fill="#305E4D"/>
<path d="M87.7681 52.0617H91.2483V31.4823H87.7681V52.0617ZM87.6862 28.624H91.3711V24.5H87.6862V28.624Z" fill="#305E4D"/>
<path d="M96.4846 52.0617H100.006V40.8737C100.006 37.8521 102.094 33.8914 105.41 33.8914C107.457 33.8914 108.563 35.443 108.563 38.5463V52.0617H112.084V40.8737C112.084 37.8521 114.172 33.8914 117.489 33.8914C119.536 33.8914 120.641 35.443 120.641 38.5463V52.0617H124.122V37.7704C124.122 33.7281 122.607 31.1965 118.799 31.1965C115.482 31.1965 113.231 33.3197 111.961 35.8513C111.511 32.9523 109.914 31.1965 106.72 31.1965C103.486 31.1965 101.275 33.1972 100.006 35.6472V31.4823H96.4846V52.0617Z" fill="#305E4D"/>
<path d="M137.548 52.3067C143.239 52.3067 147.579 48.1826 147.579 41.772C147.579 35.3614 143.239 31.1965 137.548 31.1965C131.857 31.1965 127.517 35.3614 127.517 41.772C127.517 48.1826 131.857 52.3067 137.548 52.3067ZM131.202 41.772C131.202 36.7905 133.822 34.0139 137.548 34.0139C141.315 34.0139 143.935 36.7905 143.935 41.772C143.935 46.7535 141.315 49.5301 137.548 49.5301C133.822 49.5301 131.202 46.7535 131.202 41.772Z" fill="#305E4D"/>
</svg>
