<svg width="512" height="512" viewBox="0 0 512 512" fill="none" xmlns="http://www.w3.org/2000/svg">
<path d="M187.867 158.309V143.28H58.113V398.776H113.723V383.75H73.145V158.309H187.867Z" fill="#EE7773"/>
<path d="M33.0659 140.773C33.0659 128.343 43.1759 118.23 55.6089 118.23H233.812V103.203H55.6099C34.8919 103.203 18.0359 120.055 18.0359 140.773V296.078H33.0669L33.0659 140.773Z" fill="#EE7773"/>
<path d="M512 94.11V37.573C512 16.855 495.145 0 474.426 0H437.926V15.031H474.426C486.859 15.031 496.969 25.141 496.969 37.574V60.117H341.668V37.574C341.668 25.141 351.781 15.031 364.211 15.031H422.895V0H364.21C343.491 0 326.636 16.855 326.636 37.574V103.204H248.843V118.23H326.636V143.281H202.895V158.309H326.637V318.12C326.637 338.839 343.492 355.694 364.211 355.694H438.855V383.749H128.75V398.776H453.887V355.694H474.426C475.953 355.694 477.457 355.593 478.934 355.414V423.827H319.625V431.343C319.623 433.069 318.936 434.724 317.715 435.945C316.494 437.165 314.839 437.852 313.113 437.854H198.887C197.161 437.852 195.506 437.165 194.285 435.945C193.064 434.724 192.377 433.069 192.375 431.343V423.827H83.379V438.854H178.699C181.754 447.042 189.652 452.882 198.887 452.882H313.113C322.348 452.882 330.246 447.042 333.301 438.854H496.969V457.394C496.969 469.824 486.859 479.936 474.426 479.936H37.574C25.141 479.936 15.031 469.823 15.031 457.394V438.854H68.348V423.827H33.066V311.11H18.036V423.83H0V457.396C0 478.114 16.855 494.966 37.574 494.966H474.426C495.145 494.966 512 478.114 512 457.396V423.829H493.965V350.204C504.773 343.598 512 331.688 512 318.121V109.141H496.969V250.488H341.668V75.148H496.968V94.11H512ZM496.969 265.52V318.121C496.969 330.551 486.859 340.664 474.426 340.664H364.21C351.78 340.664 341.667 330.551 341.667 318.121V265.52H496.969Z" fill="#EE7773"/>
<path d="M441.863 280.547H396.773V325.637H441.863V280.547ZM426.832 310.605H411.805V295.578H426.832V310.605ZM267.523 256C267.523 218.707 237.183 188.367 199.891 188.367C162.599 188.367 132.258 218.707 132.258 256C132.258 293.293 162.598 323.633 199.891 323.633C237.184 323.633 267.523 293.293 267.523 256ZM199.891 308.602C170.883 308.602 147.289 285.004 147.289 256C147.289 226.996 170.883 203.398 199.891 203.398C228.895 203.398 252.492 226.996 252.492 256C252.492 285.004 228.895 308.602 199.891 308.602ZM356.695 162.816C356.695 197.348 384.789 225.441 419.32 225.441C453.848 225.441 481.941 197.348 481.941 162.816C481.941 128.289 453.848 100.196 419.321 100.196C384.789 100.196 356.695 128.289 356.695 162.816ZM466.91 162.816C466.91 189.059 445.563 210.41 419.32 210.41C393.078 210.41 371.727 189.059 371.727 162.816C371.727 136.574 393.078 115.226 419.32 115.226C445.563 115.226 466.91 136.574 466.91 162.816ZM369.223 30.059H384.25V45.089H369.223V30.059ZM454.387 30.059H469.418V45.089H454.387V30.059ZM399.281 30.059H439.359V45.089H399.281V30.059ZM192.375 338.66H207.406V353.691H192.375V338.66ZM222.434 338.66H237.464V353.691H222.434V338.66ZM162.316 338.66H177.348V353.691H162.316V338.66ZM37.574 451.883H77.652V466.91H37.574V451.883ZM92.68 451.883H107.71V466.91H92.68V451.883Z" fill="#EE7773"/>
<path d="M188.867 267.418L174.145 252.691L163.515 263.316L188.867 288.668L236.266 241.273L225.636 230.648L188.867 267.418ZM395.574 157.504L384.949 168.133L410.301 193.484L453.688 150.098L443.063 139.468L410.3 172.23L395.574 157.504Z" fill="#EE7773"/>
</svg>
