<svg width="24" height="24" viewBox="0 0 24 24" fill="none" xmlns="http://www.w3.org/2000/svg">
<g clip-path="url(#clip0_94_555)">
<path d="M8.60451 11.0086H6.52905V8.89631H8.60451C8.60451 8.89631 9.83178 8.86768 9.83178 9.95313C9.83178 11.0386 8.60451 11.0086 8.60451 11.0086ZM10.1931 13.699C10.1931 14.9931 8.73133 14.9604 8.73133 14.9604H6.52905V12.4404H8.72723C8.72723 12.4404 10.1931 12.409 10.1931 13.699Z" fill="black"/>
<path d="M16.1318 11.0277C15.3832 11.0277 14.7682 11.5882 14.6455 12.4664H17.6182C17.5009 11.5909 16.8791 11.0277 16.1318 11.0277ZM16.1318 11.0277C15.3832 11.0277 14.7682 11.5882 14.6455 12.4664H17.6182C17.5009 11.5909 16.8791 11.0277 16.1318 11.0277ZM20.7273 0H3.27273C2.40475 0 1.57232 0.344804 0.95856 0.95856C0.344804 1.57232 0 2.40475 0 3.27273L0 20.7273C0 21.5953 0.344804 22.4277 0.95856 23.0414C1.57232 23.6552 2.40475 24 3.27273 24H20.7273C21.5953 24 22.4277 23.6552 23.0414 23.0414C23.6552 22.4277 24 21.5953 24 20.7273V3.27273C24 2.40475 23.6552 1.57232 23.0414 0.95856C22.4277 0.344804 21.5953 0 20.7273 0ZM14.2445 7.90909H18V8.84455H14.2445V7.90909ZM10.6623 16.1905C10.1455 16.4455 9.49636 16.5259 8.88955 16.5259H4.5V7.30636H9.32591C9.92318 7.30636 11.7723 7.66227 11.7805 9.43909C11.7805 10.6664 11.0986 11.2282 10.5109 11.4982C10.5109 11.4982 12.0436 11.9536 12.1664 13.3091C12.2891 14.6645 12.0464 15.5073 10.6623 16.1905ZM19.4795 13.6473H14.6455C14.5991 14.7123 15.3777 15.3477 16.2627 15.3477C16.5706 15.3484 16.8729 15.2652 17.1372 15.1072C17.4014 14.9491 17.6177 14.7221 17.7627 14.4505H19.3459C18.9109 16.035 17.6359 16.695 16.1291 16.695C14.1559 16.695 12.7527 15.1132 12.7527 13.1605C12.7527 11.2077 14.265 9.62455 16.1291 9.62455C17.9932 9.62455 19.5 11.2077 19.5 13.1605C19.5 13.3295 19.5 13.4905 19.4795 13.6473ZM16.1318 11.0277C15.3832 11.0277 14.7682 11.5882 14.6455 12.4664H17.6182C17.5009 11.5909 16.8791 11.0277 16.1318 11.0277Z" fill="black"/>
</g>
<defs>
<clipPath id="clip0_94_555">
<rect width="24" height="24" fill="white"/>
</clipPath>
</defs>
</svg>
