<svg width="512" height="512" viewBox="0 0 512 512" fill="none" xmlns="http://www.w3.org/2000/svg">
<path d="M340.778 40.902H210.174C209.174 40.9017 208.184 41.0984 207.261 41.4809C206.337 41.8633 205.498 42.424 204.791 43.1309C204.084 43.8378 203.523 44.677 203.141 45.6007C202.758 46.5243 202.562 47.5143 202.562 48.514C202.562 49.5136 202.759 50.5035 203.141 51.4271C203.524 52.3507 204.084 53.1899 204.791 53.8968C205.498 54.6036 206.337 55.1643 207.261 55.5468C208.184 55.9293 209.174 56.1261 210.174 56.126H340.777C341.777 56.1261 342.767 55.9293 343.69 55.5468C344.614 55.1644 345.453 54.6037 346.16 53.8968C346.867 53.19 347.428 52.3508 347.811 51.4272C348.193 50.5036 348.39 49.5137 348.39 48.514C348.39 47.5143 348.193 46.5244 347.811 45.6008C347.428 44.6772 346.868 43.8381 346.161 43.1312C345.454 42.4243 344.615 41.8636 343.691 41.4811C342.768 41.0986 341.778 40.9018 340.778 40.902ZM268.334 73.341H210.173C209.173 73.3408 208.183 73.5376 207.26 73.9201C206.336 74.3026 205.497 74.8633 204.79 75.5702C204.083 76.2771 203.523 77.1162 203.14 78.0398C202.758 78.9634 202.561 79.9533 202.561 80.953C202.561 81.9526 202.758 82.9425 203.14 83.8661C203.523 84.7897 204.083 85.6289 204.79 86.3358C205.497 87.0426 206.336 87.6033 207.26 87.9858C208.183 88.3683 209.173 88.5651 210.173 88.565H268.334C272.539 88.565 275.946 85.158 275.946 80.953C275.946 76.748 272.538 73.341 268.334 73.341Z" fill="#EE7773"/>
<path d="M479.134 74.669C478.134 74.6689 477.144 74.8657 476.221 75.2482C475.297 75.6307 474.458 76.1913 473.751 76.8982C473.044 77.6051 472.484 78.4443 472.101 79.3679C471.719 80.2914 471.522 81.2813 471.522 82.281C471.522 83.2807 471.719 84.2706 472.101 85.1941C472.484 86.1177 473.044 86.9569 473.751 87.6638C474.458 88.3707 475.297 88.9313 476.221 89.3138C477.144 89.6963 478.134 89.8931 479.134 89.893C486.623 89.893 492.715 95.985 492.715 103.474V319.757H437.161V89.892H449.847C450.847 89.8921 451.837 89.6953 452.76 89.3128C453.684 88.9303 454.523 88.3697 455.23 87.6628C455.937 86.9559 456.497 86.1167 456.88 85.1931C457.262 84.2695 457.459 83.2797 457.459 82.28C457.459 81.2803 457.262 80.2904 456.88 79.3669C456.497 78.4433 455.937 77.6041 455.23 76.8972C454.523 76.1903 453.684 75.6297 452.76 75.2472C451.837 74.8647 450.847 74.6679 449.847 74.668H437.161V22.871C437.161 10.26 426.901 0 414.29 0H95.681C83.07 0 72.81 10.26 72.81 22.871V74.669H32.866C16.983 74.669 4.06104 87.591 4.06104 103.474V397.512C4.06104 413.395 16.983 426.317 32.866 426.317H79.744C80.7437 426.317 81.7336 426.12 82.6572 425.738C83.5808 425.355 84.42 424.795 85.1268 424.088C85.8337 423.381 86.3944 422.542 86.7769 421.618C87.1594 420.695 87.3562 419.705 87.356 418.705C87.3562 417.705 87.1594 416.715 86.7769 415.792C86.3944 414.868 85.8337 414.029 85.1268 413.322C84.42 412.615 83.5808 412.055 82.6572 411.672C81.7336 411.29 80.7437 411.093 79.744 411.093H32.866C25.377 411.093 19.285 405.001 19.285 397.512V334.98H492.714V397.512C492.714 405.001 486.622 411.093 479.133 411.093H115.605C114.605 411.093 113.615 411.29 112.692 411.672C111.768 412.055 110.929 412.615 110.222 413.322C109.515 414.029 108.955 414.868 108.572 415.792C108.19 416.715 107.993 417.705 107.993 418.705C107.993 419.705 108.19 420.695 108.572 421.618C108.955 422.542 109.515 423.381 110.222 424.088C110.929 424.795 111.768 425.355 112.692 425.738C113.615 426.12 114.605 426.317 115.605 426.317H193.611V466.653C173.109 467.019 156.539 483.8 156.539 504.388C156.539 505.388 156.736 506.378 157.118 507.301C157.501 508.225 158.061 509.064 158.768 509.771C159.475 510.478 160.314 511.038 161.238 511.421C162.161 511.803 163.151 512 164.151 512H347.849C348.849 512 349.839 511.803 350.762 511.421C351.686 511.038 352.525 510.478 353.232 509.771C353.939 509.064 354.499 508.225 354.882 507.301C355.264 506.378 355.461 505.388 355.461 504.388C355.461 483.8 338.891 467.018 318.389 466.653V426.317H479.134C495.017 426.317 507.939 413.395 507.939 397.512V103.474C507.938 87.591 495.016 74.669 479.134 74.669ZM72.81 319.757H19.285V103.474C19.285 95.985 25.377 89.893 32.866 89.893H72.81V319.757ZM421.937 111.207H162.629C161.629 111.207 160.639 111.404 159.716 111.786C158.792 112.169 157.953 112.729 157.246 113.436C156.539 114.143 155.979 114.982 155.596 115.906C155.214 116.829 155.017 117.819 155.017 118.819C155.017 119.819 155.213 120.809 155.596 121.732C155.978 122.656 156.539 123.495 157.246 124.202C157.953 124.909 158.792 125.47 159.716 125.852C160.639 126.235 161.629 126.431 162.629 126.431H421.937V319.757H88.033V126.431H123.047C124.047 126.431 125.037 126.234 125.96 125.852C126.884 125.469 127.723 124.909 128.43 124.202C129.137 123.495 129.697 122.656 130.08 121.732C130.462 120.809 130.659 119.819 130.659 118.819C130.659 117.819 130.463 116.829 130.08 115.906C129.698 114.982 129.137 114.143 128.43 113.436C127.723 112.729 126.884 112.168 125.96 111.786C125.037 111.403 124.047 111.207 123.047 111.207H88.033V22.871C88.033 18.654 91.463 15.224 95.68 15.224H414.29C418.507 15.224 421.937 18.654 421.937 22.871V111.207ZM208.834 426.316H303.165V466.635H208.834V426.316ZM338.914 496.776H173.086C176.214 488.087 184.539 481.859 194.292 481.859H317.708C327.461 481.859 335.786 488.087 338.914 496.776Z" fill="#EE7773"/>
<path d="M260.082 350.032C247.398 350.032 237.078 360.352 237.078 373.037C237.078 385.721 247.398 396.041 260.082 396.041C272.768 396.041 283.087 385.722 283.087 373.037C283.087 360.352 272.767 350.032 260.082 350.032ZM260.082 380.817C255.793 380.818 252.302 377.327 252.302 373.037C252.302 368.746 255.793 365.256 260.082 365.256C264.373 365.256 267.863 368.747 267.863 373.037C267.863 377.327 264.372 380.817 260.082 380.817ZM171.365 78.731L146.311 35.336C145.643 34.1789 144.682 33.218 143.525 32.55C142.368 31.882 141.055 31.5303 139.719 31.5303C138.383 31.5303 137.07 31.882 135.913 32.55C134.756 33.218 133.795 34.1789 133.127 35.336L108.073 78.731C107.404 79.888 107.052 81.2008 107.052 82.5372C107.051 83.8736 107.403 85.1865 108.071 86.3439C108.739 87.5012 109.701 88.4622 110.858 89.1302C112.016 89.7982 113.329 90.1495 114.665 90.149H164.774C166.11 90.1494 167.423 89.7979 168.581 89.1298C169.738 88.4618 170.699 87.5008 171.367 86.3434C172.035 85.1861 172.387 83.8732 172.386 82.5369C172.386 81.2006 172.034 79.8879 171.365 78.731ZM127.848 74.926L139.719 54.366L151.59 74.926H127.848ZM399.506 154.498H289.267C288.267 154.498 287.277 154.695 286.354 155.077C285.43 155.46 284.591 156.02 283.884 156.727C283.177 157.434 282.617 158.273 282.234 159.197C281.852 160.12 281.655 161.11 281.655 162.11C281.655 163.11 281.852 164.1 282.234 165.023C282.617 165.947 283.177 166.786 283.884 167.493C284.591 168.2 285.43 168.76 286.354 169.143C287.277 169.525 288.267 169.722 289.267 169.722H399.506C400.506 169.722 401.496 169.525 402.419 169.143C403.343 168.76 404.182 168.2 404.889 167.493C405.596 166.786 406.156 165.947 406.539 165.023C406.921 164.1 407.118 163.11 407.118 162.11C407.118 161.11 406.921 160.12 406.539 159.197C406.156 158.273 405.596 157.434 404.889 156.727C404.182 156.02 403.343 155.46 402.419 155.077C401.496 154.695 400.506 154.498 399.506 154.498ZM399.506 187.975H289.267C288.267 187.975 287.277 188.172 286.354 188.554C285.43 188.937 284.591 189.497 283.884 190.204C283.177 190.911 282.617 191.75 282.234 192.674C281.852 193.597 281.655 194.587 281.655 195.587C281.655 196.587 281.851 197.577 282.234 198.5C282.616 199.424 283.177 200.263 283.884 200.97C284.591 201.677 285.43 202.238 286.354 202.62C287.277 203.003 288.267 203.199 289.267 203.199H399.506C400.506 203.199 401.496 203.002 402.419 202.62C403.343 202.237 404.182 201.677 404.889 200.97C405.596 200.263 406.156 199.424 406.539 198.5C406.921 197.577 407.118 196.587 407.118 195.587C407.118 194.587 406.921 193.597 406.539 192.674C406.156 191.75 405.596 190.911 404.889 190.204C404.182 189.497 403.343 188.937 402.419 188.554C401.496 188.172 400.506 187.975 399.506 187.975ZM399.506 221.452H289.267C288.267 221.452 287.277 221.649 286.354 222.031C285.43 222.414 284.591 222.974 283.884 223.681C283.177 224.388 282.617 225.227 282.234 226.151C281.852 227.074 281.655 228.064 281.655 229.064C281.655 230.064 281.852 231.054 282.234 231.977C282.617 232.901 283.177 233.74 283.884 234.447C284.591 235.154 285.43 235.714 286.354 236.097C287.277 236.479 288.267 236.676 289.267 236.676H399.506C400.506 236.676 401.496 236.479 402.419 236.097C403.343 235.714 404.182 235.154 404.889 234.447C405.596 233.74 406.156 232.901 406.539 231.977C406.921 231.054 407.118 230.064 407.118 229.064C407.118 228.064 406.921 227.074 406.539 226.151C406.156 225.227 405.596 224.388 404.889 223.681C404.182 222.974 403.343 222.414 402.419 222.031C401.496 221.649 400.506 221.452 399.506 221.452ZM399.506 254.929H289.267C288.267 254.929 287.277 255.126 286.354 255.508C285.43 255.891 284.591 256.451 283.884 257.158C283.177 257.865 282.617 258.704 282.234 259.628C281.852 260.551 281.655 261.541 281.655 262.541C281.655 263.541 281.852 264.53 282.234 265.454C282.617 266.378 283.177 267.217 283.884 267.924C284.591 268.631 285.43 269.191 286.354 269.574C287.277 269.956 288.267 270.153 289.267 270.153H399.506C400.506 270.153 401.496 269.956 402.419 269.574C403.343 269.191 404.182 268.631 404.889 267.924C405.596 267.217 406.156 266.378 406.539 265.454C406.921 264.53 407.118 263.541 407.118 262.541C407.118 261.541 406.921 260.551 406.539 259.628C406.156 258.704 405.596 257.865 404.889 257.158C404.182 256.451 403.343 255.891 402.419 255.508C401.496 255.126 400.506 254.929 399.506 254.929ZM340.777 288.406H289.267C288.267 288.406 287.277 288.603 286.354 288.985C285.43 289.368 284.591 289.928 283.884 290.635C283.177 291.342 282.617 292.181 282.234 293.105C281.852 294.028 281.655 295.018 281.655 296.018C281.655 297.018 281.852 298.008 282.234 298.931C282.617 299.855 283.177 300.694 283.884 301.401C284.591 302.108 285.43 302.668 286.354 303.051C287.277 303.433 288.267 303.63 289.267 303.63H340.777C341.777 303.63 342.767 303.433 343.69 303.051C344.614 302.668 345.453 302.108 346.16 301.401C346.867 300.694 347.427 299.855 347.81 298.931C348.192 298.008 348.389 297.018 348.389 296.018C348.389 295.018 348.193 294.028 347.81 293.105C347.428 292.181 346.867 291.342 346.16 290.635C345.453 289.928 344.614 289.367 343.69 288.985C342.767 288.602 341.777 288.406 340.777 288.406ZM254.985 148.085H114.664C113.664 148.085 112.674 148.282 111.751 148.664C110.827 149.047 109.988 149.607 109.281 150.314C108.574 151.021 108.014 151.86 107.631 152.784C107.249 153.707 107.052 154.697 107.052 155.697V296.018C107.052 297.018 107.249 298.008 107.631 298.931C108.014 299.855 108.574 300.694 109.281 301.401C109.988 302.108 110.827 302.668 111.751 303.051C112.674 303.433 113.664 303.63 114.664 303.63H254.985C255.985 303.63 256.975 303.433 257.898 303.051C258.822 302.668 259.661 302.108 260.368 301.401C261.075 300.694 261.635 299.855 262.018 298.931C262.4 298.008 262.597 297.018 262.597 296.018V155.697C262.597 154.697 262.4 153.707 262.018 152.784C261.635 151.86 261.075 151.021 260.368 150.314C259.661 149.607 258.822 149.047 257.898 148.664C256.975 148.282 255.985 148.085 254.985 148.085ZM122.277 163.309H247.373V242.899C246.525 242.751 245.673 242.628 244.818 242.53C231.551 241.043 223.923 246.352 217.791 250.616C213.188 253.816 209.213 256.58 202.555 257.12C191.785 258.004 184.88 252.278 176.133 245.042C166.396 236.989 155.352 227.871 137.798 228.928C132.534 229.248 127.346 230.458 122.277 232.533V163.309ZM247.374 288.406H122.276V249.539C127.676 246.278 133.192 244.46 138.721 244.124C150.284 243.419 157.767 249.608 166.43 256.773C176.003 264.691 186.846 273.658 203.786 272.294C214.534 271.422 221.158 266.816 226.482 263.116C231.942 259.32 235.554 256.815 243.126 257.659C244.533 257.817 245.953 258.081 247.374 258.45V288.406Z" fill="#EE7773"/>
<path d="M204.907 180.312C192.065 180.312 181.618 190.759 181.618 203.601C181.618 216.442 192.065 226.89 204.907 226.89C217.749 226.89 228.196 216.443 228.196 203.601C228.196 190.759 217.749 180.312 204.907 180.312ZM204.907 211.667C200.46 211.667 196.841 208.048 196.841 203.601C196.841 199.153 200.46 195.535 204.907 195.535C209.354 195.535 212.973 199.154 212.973 203.601C212.973 208.048 209.354 211.667 204.907 211.667Z" fill="#EE7773"/>
</svg>
