<svg width="512" height="512" viewBox="0 0 512 512" fill="none" xmlns="http://www.w3.org/2000/svg">
<g clip-path="url(#clip0_93_455)">
<path d="M58.9602 187.547C59.6552 188.243 60.4811 188.796 61.3903 189.173C62.2994 189.549 63.2741 189.743 64.2582 189.742C65.7403 189.741 67.1889 189.302 68.4211 188.478C69.6534 187.655 70.6138 186.485 71.181 185.115C71.7483 183.746 71.8968 182.24 71.608 180.786C71.3192 179.332 70.6059 177.997 69.5582 176.949L51.3632 158.754L69.5592 140.563C70.9254 139.149 71.6816 137.256 71.6649 135.29C71.6482 133.324 70.8599 131.444 69.4699 130.054C68.08 128.664 66.1995 127.876 64.2338 127.859C62.2682 127.842 60.3746 128.598 58.9612 129.965L35.4691 153.457C34.7731 154.152 34.221 154.979 33.8444 155.888C33.4677 156.797 33.2738 157.771 33.2738 158.756C33.2738 159.74 33.4677 160.714 33.8444 161.624C34.221 162.533 34.7731 163.359 35.4691 164.055L58.9602 187.547ZM133.321 158.754L115.125 176.949C114.429 177.645 113.877 178.471 113.501 179.38C113.125 180.29 112.931 181.264 112.931 182.249C112.932 183.233 113.126 184.207 113.503 185.116C113.88 186.025 114.433 186.851 115.129 187.547C116.589 189.007 118.508 189.742 120.426 189.742C122.344 189.742 124.262 189.008 125.723 187.547L149.22 164.051C149.915 163.355 150.467 162.529 150.844 161.62C151.22 160.712 151.414 159.737 151.414 158.754C151.414 157.77 151.22 156.796 150.844 155.887C150.467 154.978 149.915 154.152 149.22 153.457L125.723 129.961C125.028 129.265 124.202 128.713 123.293 128.336C122.384 127.96 121.41 127.766 120.426 127.766C119.443 127.766 118.469 127.96 117.56 128.336C116.651 128.713 115.825 129.265 115.129 129.961C114.433 130.656 113.88 131.482 113.503 132.391C113.126 133.301 112.932 134.275 112.932 135.26C112.932 136.244 113.126 137.219 113.503 138.128C113.88 139.037 114.433 139.863 115.129 140.559L133.321 158.754ZM81.1723 189.223C82.0703 189.574 83.0003 189.743 83.9103 189.743C85.4163 189.742 86.8873 189.289 88.1317 188.441C89.3762 187.593 90.3364 186.389 90.8873 184.988L109.344 138C109.717 137.081 109.903 136.099 109.893 135.108C109.884 134.117 109.677 133.138 109.286 132.228C108.895 131.317 108.328 130.494 107.617 129.804C106.905 129.114 106.064 128.573 105.142 128.21C104.22 127.848 103.235 127.672 102.245 127.693C101.254 127.714 100.277 127.931 99.3713 128.332C98.4652 128.732 97.6476 129.309 96.9658 130.028C96.284 130.747 95.7516 131.594 95.3993 132.52L76.9373 179.508C75.4263 183.359 77.3203 187.711 81.1723 189.223ZM45.0081 233.703H95.4883C97.4759 233.703 99.382 232.913 100.787 231.508C102.193 230.103 102.982 228.196 102.982 226.209C102.982 224.221 102.193 222.315 100.787 220.91C99.382 219.504 97.4759 218.715 95.4883 218.715H45.0081C44.0242 218.715 43.05 218.908 42.1409 219.285C41.2319 219.661 40.4059 220.213 39.7102 220.909C39.0145 221.605 38.4626 222.431 38.0861 223.34C37.7097 224.249 37.516 225.223 37.5161 226.207C37.5156 227.191 37.709 228.166 38.0853 229.075C38.4615 229.985 39.0133 230.811 39.7091 231.507C40.4048 232.203 41.2309 232.755 42.1401 233.132C43.0494 233.509 44.0239 233.703 45.0081 233.703ZM211.755 218.715H123.004C121.017 218.715 119.111 219.504 117.705 220.91C116.3 222.315 115.51 224.221 115.51 226.209C115.51 228.196 116.3 230.103 117.705 231.508C119.111 232.913 121.017 233.703 123.004 233.703H211.755C212.749 233.719 213.737 233.537 214.66 233.168C215.584 232.799 216.425 232.249 217.134 231.552C217.843 230.854 218.406 230.023 218.79 229.105C219.174 228.188 219.372 227.203 219.372 226.209C219.372 225.214 219.174 224.23 218.79 223.312C218.406 222.395 217.843 221.563 217.134 220.866C216.425 220.169 215.584 219.619 214.66 219.25C213.737 218.88 212.749 218.699 211.755 218.715ZM45.0081 265.309H66.5122C68.4999 265.309 70.4062 264.519 71.8117 263.114C73.2172 261.708 74.0068 259.802 74.0068 257.815C74.0068 255.827 73.2172 253.921 71.8117 252.515C70.4062 251.11 68.4999 250.32 66.5122 250.32H45.0081C44.0242 250.32 43.0498 250.514 42.1407 250.89C41.2316 251.267 40.4056 251.819 39.7098 252.514C39.0141 253.21 38.4623 254.036 38.0859 254.945C37.7095 255.855 37.5159 256.829 37.5161 257.813C37.5156 258.797 37.709 259.772 38.0853 260.681C38.4615 261.591 39.0133 262.417 39.7091 263.113C40.4048 263.809 41.2309 264.362 42.1401 264.738C43.0494 265.115 44.0239 265.309 45.0081 265.309ZM184.341 250.32C183.357 250.32 182.382 250.514 181.473 250.89C180.564 251.267 179.738 251.819 179.042 252.514C178.347 253.21 177.795 254.036 177.418 254.945C177.042 255.855 176.848 256.829 176.849 257.813C176.848 258.797 177.042 259.772 177.418 260.681C177.794 261.591 178.346 262.417 179.042 263.113C179.737 263.809 180.563 264.362 181.473 264.738C182.382 265.115 183.356 265.309 184.341 265.309H197.435C198.426 265.32 199.41 265.135 200.329 264.764C201.249 264.392 202.085 263.842 202.79 263.145C203.496 262.448 204.055 261.618 204.438 260.703C204.82 259.788 205.016 258.806 205.016 257.815C205.016 256.823 204.82 255.841 204.438 254.926C204.055 254.011 203.496 253.181 202.79 252.484C202.085 251.787 201.249 251.237 200.329 250.865C199.41 250.494 198.426 250.309 197.435 250.32H184.341ZM164.618 257.813C164.617 255.826 163.828 253.92 162.423 252.515C161.018 251.11 159.113 250.321 157.126 250.32H92.8053C91.8213 250.32 90.8468 250.513 89.9376 250.89C89.0284 251.266 88.2022 251.818 87.5064 252.514C86.8105 253.21 86.2586 254.036 85.8821 254.945C85.5057 255.854 85.312 256.829 85.3123 257.813C85.3118 258.797 85.5052 259.772 85.8816 260.682C86.2579 261.591 86.8098 262.417 87.5056 263.114C88.2015 263.81 89.0277 264.362 89.937 264.739C90.8464 265.115 91.821 265.309 92.8053 265.309H157.126C158.11 265.309 159.084 265.115 159.993 264.738C160.902 264.361 161.728 263.809 162.424 263.113C163.12 262.417 163.672 261.59 164.048 260.681C164.424 259.772 164.618 258.797 164.618 257.813ZM213.704 257.813C213.704 258.797 213.897 259.772 214.273 260.681C214.65 261.59 215.202 262.417 215.897 263.113C216.593 263.809 217.419 264.361 218.328 264.738C219.237 265.115 220.212 265.309 221.196 265.309H245.724C246.715 265.32 247.699 265.135 248.619 264.764C249.538 264.392 250.374 263.842 251.08 263.145C251.785 262.448 252.345 261.618 252.727 260.703C253.109 259.788 253.306 258.806 253.306 257.815C253.306 256.823 253.109 255.841 252.727 254.926C252.345 254.011 251.785 253.181 251.08 252.484C250.374 251.787 249.538 251.237 248.619 250.865C247.699 250.494 246.715 250.309 245.724 250.32H221.196C219.209 250.321 217.303 251.11 215.898 252.515C214.493 253.92 213.704 255.826 213.704 257.813ZM172.896 164.766H198.766C199.757 164.777 200.741 164.592 201.66 164.22C202.58 163.849 203.416 163.299 204.121 162.601C204.827 161.904 205.386 161.074 205.769 160.159C206.151 159.244 206.347 158.263 206.347 157.271C206.347 156.28 206.151 155.298 205.769 154.383C205.386 153.468 204.827 152.638 204.121 151.941C203.416 151.244 202.58 150.694 201.66 150.322C200.741 149.951 199.757 149.765 198.766 149.777H172.896C170.908 149.777 169.002 150.566 167.596 151.972C166.191 153.377 165.401 155.283 165.401 157.271C165.401 159.259 166.191 161.165 167.596 162.571C169.002 163.976 170.908 164.766 172.896 164.766ZM227.743 164.766H385.599C386.584 164.766 387.558 164.572 388.467 164.195C389.377 163.818 390.203 163.266 390.899 162.57C391.594 161.874 392.146 161.047 392.522 160.138C392.899 159.228 393.092 158.254 393.092 157.27C393.092 156.286 392.898 155.311 392.522 154.402C392.145 153.493 391.594 152.667 390.898 151.971C390.202 151.275 389.376 150.723 388.467 150.347C387.558 149.97 386.583 149.776 385.599 149.777H227.743C225.755 149.777 223.849 150.566 222.443 151.972C221.038 153.377 220.248 155.283 220.248 157.271C220.248 159.259 221.038 161.165 222.443 162.571C223.849 163.976 225.755 164.766 227.743 164.766ZM361.622 182.746H297.677C295.69 182.746 293.783 183.535 292.378 184.941C290.973 186.346 290.183 188.252 290.183 190.24C290.183 192.227 290.973 194.133 292.378 195.539C293.783 196.944 295.69 197.734 297.677 197.734H361.622C363.61 197.734 365.516 196.944 366.921 195.539C368.327 194.133 369.116 192.227 369.116 190.24C369.116 188.252 368.327 186.346 366.921 184.941C365.516 183.535 363.61 182.746 361.622 182.746ZM273.701 182.746H251.72C250.736 182.746 249.761 182.94 248.852 183.316C247.943 183.693 247.117 184.245 246.421 184.942C245.725 185.638 245.173 186.464 244.797 187.373C244.421 188.283 244.227 189.258 244.228 190.242C244.228 191.226 244.422 192.2 244.798 193.109C245.174 194.018 245.726 194.844 246.422 195.54C247.118 196.235 247.944 196.787 248.853 197.164C249.762 197.54 250.736 197.734 251.72 197.734H273.7C274.684 197.734 275.658 197.54 276.567 197.164C277.476 196.787 278.302 196.235 278.998 195.54C279.694 194.844 280.246 194.018 280.622 193.109C280.999 192.2 281.192 191.226 281.192 190.242C281.193 189.258 280.999 188.283 280.623 187.373C280.247 186.464 279.695 185.638 278.999 184.942C278.303 184.245 277.477 183.693 276.568 183.316C275.659 182.94 274.684 182.746 273.7 182.746H273.701ZM172.896 197.734H226.743C228.73 197.734 230.637 196.944 232.042 195.539C233.447 194.133 234.237 192.227 234.237 190.24C234.237 188.252 233.447 186.346 232.042 184.941C230.637 183.535 228.73 182.746 226.743 182.746H172.896C171.901 182.729 170.914 182.911 169.99 183.281C169.067 183.65 168.226 184.199 167.517 184.897C166.808 185.594 166.245 186.426 165.86 187.343C165.476 188.261 165.278 189.245 165.278 190.24C165.278 191.234 165.476 192.219 165.86 193.136C166.245 194.054 166.808 194.885 167.517 195.583C168.226 196.28 169.067 196.83 169.99 197.199C170.914 197.568 171.901 197.75 172.896 197.734ZM157.22 281.66H106.742C105.758 281.66 104.784 281.853 103.874 282.23C102.965 282.606 102.139 283.158 101.443 283.854C100.747 284.549 100.194 285.375 99.8176 286.284C99.4407 287.194 99.2466 288.168 99.2464 289.152C99.2465 290.136 99.4405 291.111 99.8173 292.02C100.194 292.929 100.746 293.755 101.442 294.451C102.138 295.147 102.965 295.699 103.874 296.075C104.784 296.452 105.758 296.645 106.742 296.645H157.22C159.207 296.645 161.112 295.855 162.517 294.45C163.922 293.045 164.711 291.139 164.712 289.152C164.711 287.165 163.922 285.26 162.517 283.855C161.112 282.45 159.206 281.661 157.22 281.66ZM83.7903 281.66H45.0071C44.0232 281.66 43.049 281.854 42.1399 282.23C41.2309 282.607 40.4049 283.158 39.7092 283.854C39.0135 284.55 38.4616 285.376 38.0851 286.285C37.7087 287.194 37.515 288.168 37.5151 289.152C37.5149 290.136 37.7085 291.111 38.0849 292.02C38.4613 292.929 39.0131 293.755 39.7088 294.451C40.4046 295.147 41.2306 295.699 42.1397 296.075C43.0488 296.452 44.0232 296.645 45.0071 296.645H83.7883C84.7723 296.645 85.7467 296.452 86.6558 296.075C87.5649 295.699 88.3909 295.147 89.0866 294.451C89.7823 293.755 90.3342 292.929 90.7106 292.02C91.087 291.111 91.2806 290.136 91.2803 289.152C91.2805 288.168 91.0868 287.194 90.7103 286.285C90.3338 285.376 89.782 284.55 89.0863 283.854C88.3905 283.158 87.5646 282.607 86.6555 282.23C85.7465 281.854 84.7722 281.66 83.7883 281.66H83.7903ZM248.724 281.66H182.781C181.797 281.66 180.822 281.854 179.913 282.23C179.004 282.607 178.178 283.158 177.483 283.854C176.787 284.55 176.235 285.376 175.859 286.285C175.482 287.194 175.289 288.168 175.289 289.152C175.288 290.136 175.482 291.111 175.858 292.02C176.235 292.929 176.787 293.755 177.482 294.451C178.178 295.147 179.004 295.699 179.913 296.075C180.822 296.452 181.797 296.645 182.781 296.645H248.723C250.71 296.645 252.615 295.855 254.02 294.45C255.425 293.045 256.215 291.139 256.215 289.152C256.214 287.165 255.425 285.26 254.02 283.855C252.615 282.45 250.71 281.661 248.723 281.66H248.724ZM337.899 243.168H301.841C299.854 243.168 297.947 243.958 296.542 245.363C295.137 246.768 294.347 248.674 294.347 250.662C294.347 252.65 295.137 254.556 296.542 255.961C297.947 257.366 299.854 258.156 301.841 258.156H337.899C338.884 258.156 339.858 257.962 340.768 257.586C341.677 257.209 342.503 256.657 343.199 255.961C343.895 255.264 344.447 254.438 344.823 253.529C345.199 252.619 345.393 251.644 345.392 250.66C345.392 249.676 345.199 248.702 344.822 247.793C344.446 246.883 343.894 246.057 343.198 245.362C342.502 244.666 341.676 244.114 340.767 243.738C339.858 243.361 338.883 243.168 337.899 243.168ZM400.471 258.156H451.373C452.367 258.172 453.355 257.99 454.278 257.621C455.202 257.252 456.042 256.702 456.751 256.005C457.46 255.307 458.024 254.476 458.408 253.558C458.792 252.641 458.99 251.657 458.99 250.662C458.99 249.667 458.792 248.683 458.408 247.766C458.024 246.848 457.46 246.017 456.751 245.319C456.042 244.622 455.202 244.072 454.278 243.703C453.355 243.334 452.367 243.152 451.373 243.168H400.472C399.488 243.168 398.513 243.362 397.604 243.738C396.695 244.114 395.869 244.666 395.174 245.362C394.478 246.058 393.926 246.884 393.55 247.793C393.173 248.702 392.979 249.676 392.98 250.66C392.979 251.644 393.173 252.619 393.549 253.528C393.926 254.437 394.477 255.264 395.173 255.96C395.869 256.656 396.695 257.208 397.604 257.585C398.513 257.962 399.487 258.156 400.472 258.156H400.471ZM375.017 243.168H363.353C361.366 243.168 359.46 243.958 358.054 245.363C356.649 246.768 355.859 248.674 355.859 250.662C355.859 252.65 356.649 254.556 358.054 255.961C359.46 257.366 361.366 258.156 363.353 258.156H375.017C376.002 258.156 376.976 257.962 377.885 257.585C378.795 257.209 379.621 256.656 380.317 255.96C381.012 255.264 381.564 254.438 381.94 253.528C382.317 252.619 382.51 251.644 382.509 250.66C382.51 249.676 382.316 248.702 381.939 247.793C381.563 246.884 381.011 246.058 380.315 245.362C379.62 244.666 378.794 244.114 377.885 243.738C376.976 243.362 376.001 243.168 375.017 243.168ZM301.841 339.813H337.899C338.883 339.814 339.858 339.62 340.767 339.244C341.677 338.868 342.503 338.316 343.199 337.62C343.895 336.924 344.447 336.098 344.823 335.188C345.199 334.279 345.393 333.304 345.392 332.32C345.392 331.336 345.199 330.362 344.822 329.453C344.446 328.544 343.894 327.718 343.198 327.022C342.502 326.326 341.676 325.774 340.767 325.398C339.858 325.022 338.883 324.828 337.899 324.828H301.841C299.854 324.829 297.949 325.618 296.544 327.023C295.139 328.428 294.35 330.333 294.349 332.32C294.349 333.304 294.542 334.279 294.919 335.188C295.295 336.097 295.847 336.923 296.543 337.619C297.239 338.315 298.065 338.867 298.974 339.243C299.883 339.62 300.857 339.813 301.841 339.813ZM400.471 339.813H451.373C453.36 339.813 455.266 339.024 456.671 337.619C458.076 336.214 458.865 334.308 458.865 332.321C458.865 330.334 458.076 328.428 456.671 327.023C455.266 325.618 453.36 324.828 451.373 324.828H400.472C399.488 324.828 398.513 325.022 397.604 325.398C396.695 325.775 395.869 326.327 395.174 327.022C394.478 327.718 393.926 328.544 393.55 329.453C393.173 330.362 392.979 331.336 392.98 332.32C392.979 333.304 393.173 334.279 393.549 335.188C393.926 336.097 394.477 336.923 395.173 337.619C395.869 338.315 396.695 338.867 397.604 339.243C398.513 339.62 399.488 339.813 400.472 339.813H400.471ZM363.353 339.813H375.017C377.005 339.813 378.91 339.024 380.315 337.619C381.721 336.214 382.51 334.308 382.51 332.321C382.51 330.334 381.721 328.428 380.315 327.023C378.91 325.618 377.005 324.828 375.017 324.828H363.353C362.369 324.828 361.395 325.022 360.486 325.398C359.577 325.774 358.751 326.326 358.055 327.022C357.359 327.718 356.807 328.544 356.43 329.453C356.054 330.362 355.86 331.336 355.86 332.32C355.86 333.304 356.053 334.279 356.43 335.188C356.806 336.098 357.358 336.924 358.054 337.62C358.75 338.316 359.576 338.868 360.485 339.244C361.395 339.62 362.369 339.814 363.353 339.813ZM337.899 406.489H301.841C297.704 406.489 294.349 409.845 294.349 413.981C294.349 418.117 297.704 421.474 301.841 421.474H337.899C342.04 421.474 345.392 418.118 345.392 413.981C345.392 409.844 342.04 406.489 337.899 406.489ZM451.373 406.489H400.472C396.332 406.489 392.98 409.845 392.98 413.981C392.98 418.117 396.331 421.474 400.472 421.474H451.374C455.514 421.474 458.87 418.118 458.87 413.981C458.87 409.844 455.515 406.489 451.374 406.489H451.373ZM375.017 406.489H363.353C359.212 406.489 355.856 409.845 355.856 413.981C355.856 418.117 359.212 421.474 363.353 421.474H375.017C379.157 421.474 382.509 418.118 382.509 413.981C382.509 409.844 379.157 406.489 375.017 406.489Z" fill="#EE7773"/>
<path d="M479.025 0.999023H32.9801C14.7971 0.999023 0 15.7921 0 33.9792V396.548C0 414.731 14.7971 429.524 32.9801 429.524H61.1802C62.1641 429.524 63.1384 429.33 64.0475 428.954C64.9565 428.577 65.7825 428.025 66.4782 427.33C67.1739 426.634 67.7258 425.808 68.1022 424.899C68.4787 423.99 68.6724 423.016 68.6723 422.032C68.6717 420.045 67.8822 418.14 66.4773 416.735C65.0724 415.33 63.1671 414.54 61.1802 414.54H32.9801C23.0591 414.54 14.9881 406.47 14.9881 396.548V368.12H287.985V381.035H282.044C273.915 381.035 267.306 387.645 267.306 395.773V414.539H106.738C104.752 414.539 102.846 415.329 101.441 416.734C100.036 418.139 99.2469 420.044 99.2464 422.031C99.2463 423.015 99.44 423.989 99.8164 424.898C100.193 425.807 100.745 426.633 101.44 427.329C102.136 428.024 102.962 428.576 103.871 428.953C104.78 429.329 105.755 429.523 106.738 429.523H178.786V456.398H156.161C141.067 456.398 128.79 468.68 128.79 483.77V499.957C128.79 506.844 134.391 512.445 141.278 512.445H370.153C377.04 512.445 382.642 506.844 382.642 499.957V483.771C382.642 468.681 370.364 456.399 355.271 456.399H332.646V446.927H471.174C479.299 446.927 485.908 440.317 485.908 432.188V428.661C500.514 425.271 511.432 412.165 511.432 396.548L511.998 33.9762C512.002 15.7921 497.209 0.999023 479.025 0.999023ZM282.294 350.281V314.363H470.924V350.281H282.294ZM302.97 299.375V283.609H450.244V299.375H302.97ZM450.244 365.265V381.036H302.971V365.265H450.244ZM193.771 429.525H267.306V432.193C267.306 440.318 273.916 446.928 282.044 446.928H317.661V456.4H193.771V429.525ZM355.274 471.389C362.103 471.389 367.657 476.943 367.657 483.772V497.462H143.774V483.772C143.774 476.943 149.333 471.389 156.161 471.389H355.274ZM470.924 431.939H282.294V396.025H470.924V431.939ZM496.447 396.549C496.447 403.807 492.119 410.061 485.912 412.9V395.771C485.912 387.646 479.299 381.036 471.174 381.036H465.232V368.121H496.447V396.549ZM496.447 353.138H485.667C485.818 352.29 485.912 314.114 485.912 314.114C485.912 305.985 479.299 299.376 471.174 299.376H465.232V283.61H471.174C479.299 283.61 485.912 276.997 485.912 268.872V232.454C485.912 224.329 479.299 217.716 471.174 217.716H428.85C427.865 217.716 426.891 217.91 425.981 218.286C425.072 218.663 424.246 219.215 423.55 219.911C422.854 220.607 422.302 221.434 421.926 222.343C421.55 223.253 421.356 224.228 421.357 225.212C421.357 226.196 421.55 227.17 421.927 228.079C422.303 228.988 422.855 229.814 423.551 230.51C424.247 231.206 425.073 231.758 425.982 232.134C426.891 232.511 427.866 232.704 428.85 232.704H470.924V268.622H282.294V232.704H382.224C383.208 232.704 384.183 232.51 385.092 232.134C386.001 231.757 386.827 231.206 387.522 230.51C388.218 229.814 388.77 228.988 389.146 228.079C389.523 227.17 389.717 226.196 389.717 225.212C389.717 224.228 389.524 223.253 389.147 222.344C388.771 221.434 388.219 220.608 387.524 219.912C386.828 219.216 386.002 218.663 385.093 218.287C384.183 217.91 383.209 217.716 382.224 217.716H282.044C273.915 217.716 267.306 224.329 267.306 232.454V268.872C267.306 276.997 273.916 283.61 282.044 283.61H287.985V299.376H282.044C273.915 299.376 267.306 305.989 267.306 314.114C267.306 314.114 267.399 352.29 267.552 353.138H14.9881V102.929H496.447V353.138ZM496.447 87.9414H15.5401V33.9762C15.5401 24.0581 23.6101 15.9871 33.5321 15.9871H478.456C488.378 15.9871 496.448 24.0571 496.448 33.9792L496.447 87.9414Z" fill="#EE7773"/>
<path d="M55.262 29.761C43.137 29.761 33.2729 39.624 33.2729 51.749C33.2729 63.874 43.137 73.741 55.262 73.741C67.387 73.741 77.2539 63.874 77.2539 51.749C77.2539 39.624 67.387 29.761 55.262 29.761ZM55.262 58.753C51.402 58.753 48.2579 55.613 48.2579 51.749C48.2579 47.889 51.402 44.745 55.262 44.745C59.125 44.745 62.2659 47.89 62.2659 51.749C62.2644 53.6061 61.5259 55.3866 60.2128 56.6998C58.8996 58.013 57.119 58.7514 55.262 58.753ZM111.25 29.761C99.125 29.761 89.258 39.624 89.258 51.749C89.258 63.874 99.125 73.741 111.25 73.741C123.375 73.741 133.238 63.874 133.238 51.749C133.238 39.624 123.371 29.761 111.25 29.761ZM111.25 58.753C109.393 58.7514 107.612 58.013 106.299 56.6998C104.986 55.3866 104.248 53.6061 104.246 51.749C104.246 47.889 107.386 44.745 111.25 44.745C115.11 44.745 118.254 47.89 118.254 51.749C118.254 55.612 115.109 58.753 111.25 58.753ZM167.234 29.761C155.109 29.761 145.246 39.624 145.246 51.749C145.246 63.874 155.109 73.741 167.234 73.741C179.359 73.741 189.227 63.874 189.227 51.749C189.227 39.624 179.359 29.761 167.234 29.761ZM167.234 58.753C163.375 58.753 160.23 55.613 160.23 51.749C160.23 47.889 163.375 44.745 167.234 44.745C171.098 44.745 174.238 47.89 174.238 51.749C174.236 53.6061 173.498 55.3866 172.185 56.6998C170.872 58.013 169.091 58.7514 167.234 58.753Z" fill="#EE7773"/>
</g>
<defs>
<clipPath id="clip0_93_455">
<rect width="512" height="512" fill="white"/>
</clipPath>
</defs>
</svg>
