<svg width="21" height="21" viewBox="0 0 21 21" fill="none" xmlns="http://www.w3.org/2000/svg">
<path d="M19.5 0C20.2969 0 21 0.703125 21 1.54688V19.5C21 20.3438 20.2969 21 19.5 21H1.45312C0.65625 21 0 20.3438 0 19.5V1.54688C0 0.703125 0.65625 0 1.45312 0H19.5ZM6.32812 18V8.01562H3.23438V18H6.32812ZM4.78125 6.60938C5.76562 6.60938 6.5625 5.8125 6.5625 4.82812C6.5625 3.84375 5.76562 3 4.78125 3C3.75 3 2.95312 3.84375 2.95312 4.82812C2.95312 5.8125 3.75 6.60938 4.78125 6.60938ZM18 18V12.5156C18 9.84375 17.3906 7.73438 14.25 7.73438C12.75 7.73438 11.7188 8.57812 11.2969 9.375H11.25V8.01562H8.29688V18H11.3906V13.0781C11.3906 11.7656 11.625 10.5 13.2656 10.5C14.8594 10.5 14.8594 12 14.8594 13.125V18H18Z" fill="#011309"/>
</svg>
