<svg width="176" height="80" viewBox="0 0 176 80" fill="none" xmlns="http://www.w3.org/2000/svg">
<path d="M33.4606 44.043C34.192 46.8582 36.9506 48.1526 39.5408 48.1526C41.5681 48.1526 43.8202 47.4212 43.8202 45.169C43.8202 43.7049 42.4692 42.8603 40.7235 42.1289L36.5573 40.553C30.8704 38.4126 29.4076 35.2041 29.4076 32.6139C29.4076 27.3216 33.9119 24 39.8238 24C43.4269 24 47.9312 25.2378 49.7887 30.3617L44.2149 32.389C43.4821 30.0802 41.3997 29.4606 39.8789 29.4606C38.0767 29.4606 36.164 30.4735 36.164 32.4441C36.164 34.0201 37.5716 34.8095 39.1476 35.3711L43.3703 36.8918C49.4506 38.9191 50.6332 42.5774 50.6332 45.0559C50.6332 50.6862 45.3976 53.7264 39.4857 53.7264C34.8682 53.7264 29.6325 51.8123 28 46.3503L33.4606 44.0416V44.043Z" fill="#0058F7"/>
<path d="M80.3624 48.2658C76.5344 52.5437 71.8617 53.7264 67.4692 53.7264C57.2228 53.7264 51.0859 47.0831 51.0859 38.9756C51.0859 30.8682 57.674 24 66.6812 24C74.394 24 81.6569 28.8424 81.6569 39.8202H58.0107C58.0107 44.3245 61.6705 47.8711 67.8073 47.8711C71.3553 47.8711 74.0007 46.5752 76.4212 44.3797L80.3624 48.2643V48.2658ZM58.3488 35.1476H74.5637C73.4942 30.7564 69.6081 29.5172 66.6812 29.5172C63.7543 29.5172 59.813 30.7564 58.3488 35.1476Z" fill="#0058F7"/>
<path d="M82.8975 66V24.6196H89.8222V28.899C91.8495 25.8023 95.396 24 99.5622 24C108.008 24 113.525 30.6433 113.525 38.9756C113.525 47.308 108.233 53.7264 99.5056 53.7264C95.6775 53.7264 92.131 52.149 89.8222 48.884V66H82.8975ZM98.1546 29.7987C93.4254 29.7987 89.6539 33.0086 89.6539 38.6375C89.6539 44.2665 93.2005 47.9276 98.3244 47.9276C103.448 47.9276 106.545 43.818 106.545 38.9191C106.545 34.0201 103.335 29.7987 98.156 29.7987H98.1546Z" fill="#0058F7"/>
<path d="M118.67 44.0428C119.402 46.858 122.16 48.1524 124.75 48.1524C126.778 48.1524 129.03 47.421 129.03 45.1689C129.03 43.7047 127.679 42.8601 125.933 42.1287L121.767 40.5528C116.08 38.4138 114.617 35.204 114.617 32.6151C114.617 27.3229 119.121 24.0012 125.033 24.0012C128.636 24.0012 133.141 25.2391 134.998 30.363L129.424 32.3902C128.692 30.0815 126.609 29.4618 125.088 29.4618C123.286 29.4618 121.374 30.4747 121.374 32.4454C121.374 34.0213 122.781 34.8107 124.357 35.3723L128.58 36.8931C134.66 38.9203 135.843 42.5786 135.843 45.0571C135.843 50.6875 130.607 53.7276 124.695 53.7276C120.078 53.7276 114.842 51.8135 113.21 46.3515L118.67 44.0428Z" fill="#0058F7"/>
<path d="M142.676 53.1905C140.046 53.1905 137.907 51.0515 137.907 48.4217C137.907 45.7918 140.046 43.6528 142.676 43.6528C145.306 43.6528 147.444 45.7918 147.444 48.4217C147.444 51.0515 145.306 53.1905 142.676 53.1905Z" fill="white"/>
<path d="M142.676 44.8634C144.641 44.8634 146.233 46.4563 146.233 48.4213C146.233 50.3863 144.641 51.9792 142.676 51.9792C140.711 51.9792 139.118 50.3863 139.118 48.4213C139.118 46.4563 140.711 44.8634 142.676 44.8634ZM142.676 43.1262C139.756 43.1262 137.382 45.5014 137.382 48.4199C137.382 51.3384 139.757 53.7136 142.676 53.7136C145.594 53.7136 147.969 51.3384 147.969 48.4199C147.969 45.5014 145.594 43.1262 142.676 43.1262Z" fill="#0058F7"/>
</svg>
