<svg width="512" height="512" viewBox="0 0 512 512" fill="none" xmlns="http://www.w3.org/2000/svg">
<g clip-path="url(#clip0_93_447)">
<path d="M231.226 371.613V338.581C231.226 324.922 220.11 313.806 206.452 313.806V297.29C220.11 297.29 231.226 286.175 231.226 272.516V239.484C231.226 225.825 220.11 214.71 206.452 214.71V198.194C220.11 198.194 231.226 187.078 231.226 173.419V140.387C231.226 126.728 220.11 115.613 206.452 115.613H24.7742C11.1154 115.613 0 126.728 0 140.387V173.419C0 187.078 11.1154 198.194 24.7742 198.194V214.71C11.1154 214.71 0 225.825 0 239.484V272.516C0 286.175 11.1154 297.29 24.7742 297.29V313.806C11.1154 313.806 0 324.922 0 338.581V371.613C0 385.272 11.1154 396.387 24.7742 396.387H206.452C220.11 396.387 231.226 385.272 231.226 371.613ZM16.5161 173.419V140.387C16.5161 138.197 17.3862 136.096 18.9349 134.548C20.4835 132.999 22.584 132.129 24.7742 132.129H206.452C208.642 132.129 210.742 132.999 212.291 134.548C213.84 136.096 214.71 138.197 214.71 140.387V173.419C214.71 175.61 213.84 177.71 212.291 179.259C210.742 180.807 208.642 181.677 206.452 181.677H24.7742C22.584 181.677 20.4835 180.807 18.9349 179.259C17.3862 177.71 16.5161 175.61 16.5161 173.419ZM41.2903 198.194H189.935V214.71H41.2903V198.194ZM16.5161 272.516V239.484C16.5161 237.294 17.3862 235.193 18.9349 233.645C20.4835 232.096 22.584 231.226 24.7742 231.226H206.452C208.642 231.226 210.742 232.096 212.291 233.645C213.84 235.193 214.71 237.294 214.71 239.484V272.516C214.71 274.706 213.84 276.807 212.291 278.355C210.742 279.904 208.642 280.774 206.452 280.774H24.7742C22.584 280.774 20.4835 279.904 18.9349 278.355C17.3862 276.807 16.5161 274.706 16.5161 272.516ZM41.2903 297.29H189.935V313.806H41.2903V297.29ZM16.5161 371.613V338.581C16.5161 336.39 17.3862 334.29 18.9349 332.741C20.4835 331.193 22.584 330.323 24.7742 330.323H206.452C208.642 330.323 210.742 331.193 212.291 332.741C213.84 334.29 214.71 336.39 214.71 338.581V371.613C214.71 373.803 213.84 375.904 212.291 377.452C210.742 379.001 208.642 379.871 206.452 379.871H24.7742C22.584 379.871 20.4835 379.001 18.9349 377.452C17.3862 375.904 16.5161 373.803 16.5161 371.613ZM512 173.419V140.387C512 126.728 500.885 115.613 487.226 115.613H305.548C291.89 115.613 280.774 126.728 280.774 140.387V173.419C280.774 187.078 291.89 198.194 305.548 198.194V214.71C291.89 214.71 280.774 225.825 280.774 239.484V272.516C280.774 286.175 291.89 297.29 305.548 297.29V313.806C291.89 313.806 280.774 324.922 280.774 338.581V371.613C280.774 385.272 291.89 396.387 305.548 396.387H487.226C500.885 396.387 512 385.272 512 371.613V338.581C512 324.922 500.885 313.806 487.226 313.806V297.29C500.885 297.29 512 286.175 512 272.516V239.484C512 225.825 500.885 214.71 487.226 214.71V198.194C500.885 198.194 512 187.078 512 173.419ZM297.29 173.419V140.387C297.29 138.197 298.16 136.096 299.709 134.548C301.258 132.999 303.358 132.129 305.548 132.129H487.226C489.416 132.129 491.516 132.999 493.065 134.548C494.614 136.096 495.484 138.197 495.484 140.387V173.419C495.484 175.61 494.614 177.71 493.065 179.259C491.516 180.807 489.416 181.677 487.226 181.677H305.548C303.358 181.677 301.258 180.807 299.709 179.259C298.16 177.71 297.29 175.61 297.29 173.419ZM495.484 338.581V371.613C495.484 373.803 494.614 375.904 493.065 377.452C491.516 379.001 489.416 379.871 487.226 379.871H305.548C303.358 379.871 301.258 379.001 299.709 377.452C298.16 375.904 297.29 373.803 297.29 371.613V338.581C297.29 336.39 298.16 334.29 299.709 332.741C301.258 331.193 303.358 330.323 305.548 330.323H487.226C489.416 330.323 491.516 331.193 493.065 332.741C494.614 334.29 495.484 336.39 495.484 338.581ZM470.71 313.806H322.065V297.29H470.71V313.806ZM495.484 239.484V272.516C495.484 274.706 494.614 276.807 493.065 278.355C491.516 279.904 489.416 280.774 487.226 280.774H305.548C303.358 280.774 301.258 279.904 299.709 278.355C298.16 276.807 297.29 274.706 297.29 272.516V239.484C297.29 237.294 298.16 235.193 299.709 233.645C301.258 232.096 303.358 231.226 305.548 231.226H487.226C489.416 231.226 491.516 232.096 493.065 233.645C494.614 235.193 495.484 237.294 495.484 239.484ZM470.71 214.71H322.065V198.194H470.71V214.71ZM371.613 33.0323V23.1639L413.836 49.5484L371.613 75.9329V66.0645C371.613 63.8744 370.743 61.7739 369.194 60.2252C367.645 58.6765 365.545 57.8065 363.355 57.8065H99.0968V74.3226H355.097V90.8387C355.097 92.3128 355.491 93.7601 356.24 95.0302C356.988 96.3003 358.062 97.347 359.352 98.0616C360.641 98.7762 362.098 99.1327 363.572 99.094C365.045 99.0553 366.482 98.6228 367.732 97.8416L433.796 56.5512C434.984 55.8089 435.963 54.7767 436.642 53.5517C437.321 52.3266 437.677 50.949 437.677 49.5484C437.677 48.1478 437.321 46.7702 436.642 45.5451C435.963 44.3201 434.984 43.2879 433.796 42.5456L367.732 1.25525C366.482 0.473969 365.045 0.0415378 363.572 0.00284581C362.098 -0.0358462 360.641 0.320612 359.352 1.03521C358.062 1.74981 356.988 2.79651 356.24 4.06662C355.491 5.33674 355.097 6.78398 355.097 8.25808V24.7742H82.5806V41.2903H363.355C365.545 41.2903 367.645 40.4203 369.194 38.8716C370.743 37.3229 371.613 35.2225 371.613 33.0323ZM140.387 478.968V488.836L98.1636 462.452L140.387 436.067V445.936C140.387 448.126 141.257 450.226 142.806 451.775C144.355 453.324 146.455 454.194 148.645 454.194H412.903V437.677H156.903V421.161C156.904 419.686 156.51 418.237 155.761 416.966C155.013 415.695 153.937 414.647 152.646 413.932C151.356 413.217 149.897 412.861 148.422 412.901C146.948 412.941 145.51 413.375 144.26 414.158L78.1956 455.449C77.0121 456.195 76.037 457.228 75.3615 458.454C74.686 459.679 74.3322 461.055 74.333 462.454C74.3338 463.853 74.6893 465.229 75.3662 466.453C76.0432 467.677 77.0195 468.71 78.2039 469.454L144.268 510.745C145.518 511.526 146.955 511.958 148.428 511.997C149.902 512.036 151.359 511.679 152.648 510.965C153.938 510.25 155.012 509.204 155.76 507.933C156.509 506.663 156.903 505.216 156.903 503.742V487.226H429.419V470.71H148.645C146.455 470.71 144.355 471.58 142.806 473.128C141.257 474.677 140.387 476.778 140.387 478.968ZM429.419 437.677H445.935V454.194H429.419V437.677ZM462.452 437.677H478.968V454.194H462.452V437.677ZM66.0645 57.8065H82.5806V74.3226H66.0645V57.8065ZM33.0323 57.8065H49.5484V74.3226H33.0323V57.8065Z" fill="#EE7773"/>
</g>
<defs>
<clipPath id="clip0_93_447">
<rect width="512" height="512" fill="white"/>
</clipPath>
</defs>
</svg>
