<svg width="176" height="80" viewBox="0 0 176 80" fill="none" xmlns="http://www.w3.org/2000/svg">
<g clip-path="url(#clip0_103_299)">
<path d="M48.75 48.6799V54.9999C48.75 55.5522 49.1977 55.9999 49.75 55.9999H56C56.5523 55.9999 57 55.5522 57 54.9999V48.6799C57 48.1276 56.5523 47.6799 56 47.6799H49.75C49.1977 47.6799 48.75 48.1276 48.75 48.6799Z" fill="#26BFAD"/>
<path d="M36.375 48.6799V54.9999C36.375 55.5522 36.8227 55.9999 37.375 55.9999H43.625C44.1773 55.9999 44.625 55.5522 44.625 54.9999V48.6799C44.625 48.1276 44.1773 47.6799 43.625 47.6799H37.375C36.8227 47.6799 36.375 48.1276 36.375 48.6799Z" fill="#26BFAD"/>
<path d="M24 48.6799V54.9999C24 55.5522 24.4477 55.9999 25 55.9999H31.2459C31.7981 55.9999 32.2458 55.5522 32.2458 54.9999V48.6799C32.2458 48.1276 31.7981 47.6799 31.2459 47.6799H25C24.4477 47.6799 24 48.1276 24 48.6799Z" fill="#26BFAD"/>
<path d="M36.375 36.3381V42.6581C36.375 43.2104 36.8227 43.6581 37.375 43.6581H43.625C44.1773 43.6581 44.625 43.2104 44.625 42.6581V36.3381C44.625 35.7858 44.1773 35.3381 43.625 35.3381H37.375C36.8227 35.3381 36.375 35.7858 36.375 36.3381Z" fill="#26BFAD"/>
<path d="M24 36.3381V42.6581C24 43.2104 24.4477 43.6581 25 43.6581H31.2459C31.7981 43.6581 32.2458 43.2104 32.2458 42.6581V36.3381C32.2458 35.7858 31.7981 35.3381 31.2459 35.3381H25C24.4477 35.3381 24 35.7858 24 36.3381Z" fill="#26BFAD"/>
<path d="M49.75 43.6618C49.1977 43.6618 48.75 43.2141 48.75 42.6618V32.3156C48.75 31.7633 48.3023 31.3156 47.75 31.3156H37.375C36.8227 31.3156 36.375 30.8679 36.375 30.3156V24.0039C36.375 23.4516 36.8227 23.0039 37.375 23.0039H55.9959C56.5481 23.0039 56.9959 23.4516 56.9959 24.0039V42.6618C56.9959 43.2141 56.5481 43.6618 55.9959 43.6618H49.75Z" fill="#26BFAD"/>
<path d="M24 24.0002V30.3203C24 30.8726 24.4477 31.3203 25 31.3203H31.2459C31.7981 31.3203 32.2458 30.8726 32.2458 30.3203V24.0002C32.2458 23.448 31.7981 23.0002 31.2459 23.0002H25C24.4477 23.0002 24 23.448 24 24.0002Z" fill="#26BFAD"/>
</g>
<path d="M77.8998 31.7934V47H76.1178L67.8314 35.0604H67.6829V47H65.8414V31.7934H67.6235L75.9396 43.7627H76.0881V31.7934H77.8998ZM86.1287 47.2376C85.0297 47.2376 84.0818 46.995 83.2848 46.5099C82.4928 46.0199 81.8815 45.3368 81.4508 44.4606C81.0251 43.5795 80.8123 42.5548 80.8123 41.3866C80.8123 40.2184 81.0251 39.1888 81.4508 38.2978C81.8815 37.4018 82.4805 36.7039 83.2477 36.2039C84.0199 35.699 84.9208 35.4465 85.9505 35.4465C86.5445 35.4465 87.1311 35.5455 87.7102 35.7435C88.2894 35.9415 88.8166 36.2633 89.2918 36.7088C89.767 37.1494 90.1456 37.7335 90.4278 38.4611C90.71 39.1888 90.851 40.0848 90.851 41.149V41.8915H82.0597V40.3768H89.069C89.069 39.7333 88.9403 39.1591 88.6829 38.6542C88.4304 38.1493 88.0691 37.7508 87.5988 37.4587C87.1335 37.1667 86.5841 37.0207 85.9505 37.0207C85.2525 37.0207 84.6486 37.1939 84.1387 37.5404C83.6338 37.882 83.2452 38.3275 82.973 38.8769C82.7007 39.4264 82.5646 40.0155 82.5646 40.6441V41.6539C82.5646 42.5152 82.7131 43.2454 83.0101 43.8443C83.3121 44.4383 83.7304 44.8913 84.265 45.2031C84.7996 45.51 85.4208 45.6635 86.1287 45.6635C86.589 45.6635 87.0048 45.5991 87.3761 45.4704C87.7523 45.3368 88.0765 45.1388 88.3488 44.8764C88.621 44.6091 88.8314 44.2775 88.9799 43.8815L90.6728 44.3567C90.4946 44.9309 90.1951 45.4358 89.7744 45.8714C89.3536 46.302 88.8339 46.6386 88.2151 46.8812C87.5964 47.1188 86.9009 47.2376 86.1287 47.2376ZM93.5166 51.2769V35.595H95.2096V37.4068H95.4175C95.5462 37.2088 95.7244 36.9563 95.9521 36.6494C96.1847 36.3376 96.5164 36.0603 96.947 35.8178C97.3826 35.5703 97.9717 35.4465 98.7142 35.4465C99.6745 35.4465 100.521 35.6866 101.254 36.1668C101.986 36.6469 102.558 37.3276 102.969 38.2087C103.38 39.0898 103.585 40.1293 103.585 41.3272C103.585 42.535 103.38 43.582 102.969 44.468C102.558 45.3492 101.989 46.0323 101.261 46.5174C100.533 46.9975 99.6943 47.2376 98.7439 47.2376C98.0113 47.2376 97.4247 47.1163 96.9842 46.8738C96.5436 46.6263 96.2045 46.3466 95.9669 46.0347C95.7293 45.7179 95.5462 45.4556 95.4175 45.2477H95.269V51.2769H93.5166ZM95.2393 41.2975C95.2393 42.1588 95.3655 42.9187 95.6179 43.577C95.8704 44.2304 96.2392 44.7428 96.7243 45.114C97.2094 45.4803 97.8034 45.6635 98.5063 45.6635C99.2389 45.6635 99.8503 45.4704 100.34 45.0843C100.835 44.6933 101.207 44.1686 101.454 43.5102C101.707 42.8469 101.833 42.1093 101.833 41.2975C101.833 40.4956 101.709 39.7729 101.462 39.1294C101.219 38.4809 100.85 37.9686 100.355 37.5924C99.8651 37.2112 99.2488 37.0207 98.5063 37.0207C97.7935 37.0207 97.1945 37.2013 96.7094 37.5627C96.2243 37.9191 95.858 38.4191 95.6105 39.0626C95.363 39.7011 95.2393 40.4461 95.2393 41.2975ZM111.218 35.595V37.0801H105.308V35.595H111.218ZM107.03 32.8626H108.783V43.733C108.783 44.228 108.854 44.5992 108.998 44.8467C109.146 45.0893 109.335 45.2526 109.562 45.3368C109.795 45.416 110.04 45.4556 110.297 45.4556C110.49 45.4556 110.649 45.4457 110.773 45.4259C110.896 45.4011 110.995 45.3813 111.07 45.3665L111.426 46.9406C111.307 46.9851 111.141 47.0297 110.929 47.0743C110.716 47.1238 110.446 47.1485 110.119 47.1485C109.624 47.1485 109.139 47.0421 108.664 46.8292C108.194 46.6164 107.803 46.2921 107.491 45.8565C107.184 45.4209 107.03 44.8715 107.03 44.2082V32.8626ZM114.983 51.2769C114.686 51.2769 114.421 51.2521 114.188 51.2026C113.955 51.1581 113.795 51.1135 113.705 51.069L114.151 49.5245C114.577 49.6334 114.953 49.673 115.28 49.6433C115.606 49.6136 115.896 49.4676 116.148 49.2053C116.406 48.9479 116.641 48.5296 116.854 47.9504L117.18 47.0594L112.963 35.595H114.864L118.012 44.6834H118.131L121.279 35.595H123.18L118.339 48.6632C118.121 49.2523 117.851 49.7399 117.529 50.126C117.208 50.517 116.834 50.8066 116.408 50.9947C115.987 51.1828 115.512 51.2769 114.983 51.2769ZM127.245 40.1392V47H125.493V35.595H127.186V37.3771H127.334C127.602 36.7979 128.007 36.3326 128.552 35.9811C129.096 35.6247 129.799 35.4465 130.661 35.4465C131.433 35.4465 132.109 35.6049 132.688 35.9217C133.267 36.2336 133.717 36.7088 134.039 37.3474C134.361 37.981 134.522 38.7829 134.522 39.7531V47H132.769V39.8719C132.769 38.9759 132.537 38.278 132.071 37.778C131.606 37.2731 130.968 37.0207 130.156 37.0207C129.596 37.0207 129.096 37.1419 128.656 37.3845C128.22 37.627 127.876 37.981 127.624 38.4463C127.371 38.9116 127.245 39.4759 127.245 40.1392ZM142.506 47.2376C141.407 47.2376 140.459 46.995 139.662 46.5099C138.87 46.0199 138.258 45.3368 137.828 44.4606C137.402 43.5795 137.189 42.5548 137.189 41.3866C137.189 40.2184 137.402 39.1888 137.828 38.2978C138.258 37.4018 138.857 36.7039 139.625 36.2039C140.397 35.699 141.298 35.4465 142.327 35.4465C142.921 35.4465 143.508 35.5455 144.087 35.7435C144.666 35.9415 145.194 36.2633 145.669 36.7088C146.144 37.1494 146.523 37.7335 146.805 38.4611C147.087 39.1888 147.228 40.0848 147.228 41.149V41.8915H138.437V40.3768H145.446C145.446 39.7333 145.317 39.1591 145.06 38.6542C144.807 38.1493 144.446 37.7508 143.976 37.4587C143.51 37.1667 142.961 37.0207 142.327 37.0207C141.629 37.0207 141.026 37.1939 140.516 37.5404C140.011 37.882 139.622 38.3275 139.35 38.8769C139.078 39.4264 138.942 40.0155 138.942 40.6441V41.6539C138.942 42.5152 139.09 43.2454 139.387 43.8443C139.689 44.4383 140.107 44.8913 140.642 45.2031C141.177 45.51 141.798 45.6635 142.506 45.6635C142.966 45.6635 143.382 45.5991 143.753 45.4704C144.129 45.3368 144.453 45.1388 144.726 44.8764C144.998 44.6091 145.208 44.2775 145.357 43.8815L147.05 44.3567C146.872 44.9309 146.572 45.4358 146.151 45.8714C145.731 46.302 145.211 46.6386 144.592 46.8812C143.973 47.1188 143.278 47.2376 142.506 47.2376Z" fill="white"/>
<defs>
<clipPath id="clip0_103_299">
<rect width="33" height="33" fill="white" transform="translate(24 23)"/>
</clipPath>
</defs>
</svg>
