<svg width="516" height="489" viewBox="0 0 516 489" fill="none" xmlns="http://www.w3.org/2000/svg">
<path d="M507.261 -17.1417L507.259 -21.6078C507.247 -61.1147 475.21 -93.1311 435.703 -93.1184C414.769 -93.1116 394.889 -83.9358 381.304 -68.0099L22.3539 352.771C10.5911 366.56 4.13221 384.092 4.13805 402.217L4.14034 409.346C4.15262 447.465 35.0642 478.357 73.1834 478.345C93.2663 478.338 112.35 469.585 125.457 454.368L488.845 32.4819C500.731 18.6818 507.267 1.07188 507.261 -17.1417Z" stroke="white" stroke-opacity="0.2" stroke-width="7.30003"/>
<rect x="251.657" y="346.822" width="259.814" height="138.401" rx="69.2005" transform="rotate(-0.0184494 251.657 346.822)" stroke="white" stroke-opacity="0.2" stroke-width="7.30003"/>
<rect x="12.3244" y="-102.891" width="208.725" height="145.701" rx="72.8505" transform="rotate(-0.0184494 12.3244 -102.891)" fill="#FFF4EB"/>
<rect x="15.9756" y="-99.2422" width="201.425" height="138.401" rx="69.2005" transform="rotate(-0.0184494 15.9756 -99.2422)" stroke="white" stroke-opacity="0.2" stroke-width="7.30003"/>
</svg>
