<svg width="127" height="127" viewBox="0 0 127 127" fill="none" xmlns="http://www.w3.org/2000/svg">
<path d="M63.5 14.0291C53.7156 14.0291 44.1509 16.9305 36.0155 22.3664C27.88 27.8023 21.5392 35.5286 17.7949 44.5683C14.0505 53.6079 13.0708 63.5548 14.9797 73.1513C16.8885 82.7477 21.6002 91.5626 28.5188 98.4812C35.4374 105.4 44.2523 110.111 53.8487 112.02C63.4451 113.929 73.3921 112.949 82.4317 109.205C91.4714 105.461 99.1976 99.12 104.634 90.9845C110.07 82.8491 112.971 73.2844 112.971 63.5C112.971 57.0034 111.691 50.5704 109.205 44.5683C106.719 38.5662 103.075 33.1125 98.4812 28.5187C93.8874 23.9249 88.4338 20.2809 82.4317 17.7948C76.4296 15.3087 69.9966 14.0291 63.5 14.0291ZM53.6058 85.7619V41.2381L83.2884 63.5L53.6058 85.7619Z" fill="#73EEA8"/>
<path d="M84.9128 63.1308L52.7936 86.4706V39.7909L84.9128 63.1308Z" fill="#011309"/>
<path d="M63.5 0C50.9409 0 38.6638 3.72421 28.2213 10.7017C17.7788 17.6791 9.63984 27.5965 4.83368 39.1996C0.0275134 50.8027 -1.23 63.5704 1.22016 75.8882C3.67032 88.206 9.71811 99.5206 18.5987 108.401C27.4794 117.282 38.794 123.33 51.1118 125.78C63.4296 128.23 76.1973 126.972 87.8004 122.166C99.4035 117.36 109.321 109.221 116.298 98.7787C123.276 88.3362 127 76.0591 127 63.5C127 55.161 125.358 46.9038 122.166 39.1996C118.975 31.4954 114.298 24.4952 108.401 18.5987C102.505 12.7022 95.5046 8.02482 87.8004 4.83365C80.0962 1.64248 71.839 0 63.5 0ZM50.8 92.075V34.925L88.9 63.5L50.8 92.075Z" fill="#73EEA8" fill-opacity="0.35"/>
<path d="M63.5 8.86035C52.6933 8.86035 42.1294 12.0649 33.1439 18.0688C24.1585 24.0726 17.1552 32.6062 13.0197 42.5902C8.88415 52.5743 7.8021 63.5605 9.91038 74.1595C12.0187 84.7585 17.2226 94.4944 24.864 102.136C32.5055 109.777 42.2414 114.981 52.8404 117.09C63.4394 119.198 74.4256 118.116 84.4097 113.98C94.3937 109.845 102.927 102.841 108.931 93.856C114.935 84.8705 118.14 74.3065 118.14 63.4999C118.14 56.3245 116.726 49.2194 113.98 42.5902C111.234 35.9611 107.21 29.9376 102.136 24.8639C97.0622 19.7901 91.0388 15.7654 84.4097 13.0195C77.7805 10.2736 70.6754 8.86035 63.5 8.86035ZM52.5721 88.0876V38.9121L85.3558 63.4999L52.5721 88.0876Z" fill="#73EEA8" fill-opacity="0.54"/>
<path d="M63.5 14.0291C53.7156 14.0291 44.1509 16.9305 36.0155 22.3664C27.88 27.8023 21.5392 35.5286 17.7949 44.5683C14.0505 53.6079 13.0708 63.5548 14.9797 73.1513C16.8885 82.7477 21.6002 91.5626 28.5188 98.4812C35.4374 105.4 44.2523 110.111 53.8487 112.02C63.4451 113.929 73.3921 112.949 82.4317 109.205C91.4714 105.461 99.1976 99.12 104.634 90.9845C110.07 82.8491 112.971 73.2844 112.971 63.5C112.971 57.0034 111.691 50.5704 109.205 44.5683C106.719 38.5662 103.075 33.1125 98.4812 28.5187C93.8874 23.9249 88.4338 20.2809 82.4317 17.7948C76.4296 15.3087 69.9966 14.0291 63.5 14.0291ZM53.6058 85.7619V41.2381L83.2884 63.5L53.6058 85.7619Z" fill="#73EEA8"/>
<path d="M84.9128 63.1308L52.7936 86.4706V39.7909L84.9128 63.1308Z" fill="#011309"/>
</svg>
