<svg width="512" height="512" viewBox="0 0 512 512" fill="none" xmlns="http://www.w3.org/2000/svg">
<path d="M192 104.184H176C171.584 104.184 168 100.592 168 96.184H152C152 109.416 162.768 120.184 176 120.184H192C205.232 120.184 216 109.416 216 96.184C216 82.952 205.232 72.184 192 72.184H176C173.94 72.0918 171.995 71.2087 170.57 69.7185C169.145 68.2283 168.35 66.2459 168.35 64.184C168.35 62.1221 169.145 60.1396 170.57 58.6494C171.995 57.1592 173.94 56.2761 176 56.184H192C196.416 56.184 200 59.776 200 64.184H216C216 50.952 205.232 40.184 192 40.184H176C162.768 40.184 152 50.952 152 64.184C152 77.416 162.768 88.184 176 88.184H192C194.06 88.2761 196.005 89.1592 197.43 90.6494C198.855 92.1396 199.65 94.1221 199.65 96.184C199.65 98.2459 198.855 100.228 197.43 101.719C196.005 103.209 194.06 104.092 192 104.184ZM256 120.184H280V104.184H256C251.584 104.184 248 100.592 248 96.184V88.184H280V72.184H248V64.184C248 59.776 251.584 56.184 256 56.184H280V40.184H256C242.768 40.184 232 50.952 232 64.184V96.184C232 109.416 242.768 120.184 256 120.184ZM320 120.184H336C349.232 120.184 360 109.416 360 96.184V64.184C360 50.952 349.232 40.184 336 40.184H320C306.768 40.184 296 50.952 296 64.184V96.184C296 109.416 306.768 120.184 320 120.184ZM312 64.184C312 59.776 315.584 56.184 320 56.184H336C340.416 56.184 344 59.776 344 64.184V96.184C344 100.592 340.416 104.184 336 104.184H320C315.584 104.184 312 100.592 312 96.184V64.184Z" fill="#EE7773"/>
<path d="M504 184H472V160C472 137.944 454.056 120 432 120H392V32.184C392 18.952 381.232 8.18396 368 8.18396H144C130.768 8.18396 120 18.952 120 32.184V120H80C57.944 120 40 137.944 40 160V208.656C20.904 219.744 8 240.376 8 264C8 287.624 20.904 308.256 40 319.344V384C40 406.056 57.944 424 80 424H176V456H168C145.944 456 128 473.944 128 496V504H384V496C384 473.944 366.056 456 344 456H336V424H432C454.056 424 472 406.056 472 384V328H504V184ZM136 32.184C136 27.776 139.584 24.184 144 24.184H368C372.416 24.184 376 27.776 376 32.184V128.184C376 132.592 372.416 136.184 368 136.184H285.584L238.664 167.288C236 169.08 232 166.92 232 163.704V136.184H144C139.584 136.184 136 132.592 136 128.184V32.184ZM56 160C56 146.768 66.768 136 80 136H121.416C123.032 140.71 126.075 144.799 130.123 147.7C134.17 150.6 139.021 152.168 144 152.184H216V163.704C216.008 167.369 217.007 170.964 218.892 174.107C220.777 177.251 223.477 179.826 226.705 181.56C229.934 183.294 233.572 184.123 237.234 183.958C240.895 183.793 244.444 182.641 247.504 180.624L290.408 152.184H368C378.48 152.184 387.32 145.384 390.584 136H432C445.232 136 456 146.768 456 160V184H392V256H344V216H296V312H280V200H232V312H216V232H168V256H135.448C131.488 224.48 104.576 200 72 200C66.464 200 61.128 200.776 56 202.104V160ZM312 312V232H328V312H312ZM264 312H248V216H264V312ZM200 312H184V248H200V312ZM24 264C24 237.528 45.528 216 72 216C98.472 216 120 237.528 120 264C120 290.472 98.472 312 72 312C45.528 312 24 290.472 24 264ZM366.632 488H145.368C147.029 483.324 150.095 479.276 154.147 476.412C158.199 473.547 163.038 472.006 168 472H344C354.432 472 363.328 478.688 366.632 488ZM320 456H192V424H320V456ZM432 408H80C66.768 408 56 397.232 56 384V360H456V384C456 397.232 445.232 408 432 408ZM456 344H56V325.896C61.2224 327.274 66.599 327.981 72 328C104.576 328 131.488 303.52 135.448 272H168V312H152V328H360V312H344V272H392V328H456V344ZM488 312H408V200H488V312Z" fill="#EE7773"/>
<path d="M224 392C228.418 392 232 388.418 232 384C232 379.582 228.418 376 224 376C219.582 376 216 379.582 216 384C216 388.418 219.582 392 224 392Z" fill="#EE7773"/>
<path d="M256 392C260.418 392 264 388.418 264 384C264 379.582 260.418 376 256 376C251.582 376 248 379.582 248 384C248 388.418 251.582 392 256 392Z" fill="#EE7773"/>
<path d="M288 392C292.418 392 296 388.418 296 384C296 379.582 292.418 376 288 376C283.582 376 280 379.582 280 384C280 388.418 283.582 392 288 392Z" fill="#EE7773"/>
<path d="M104 264C104 246.352 89.648 232 72 232C54.352 232 40 246.352 40 264C40 281.648 54.352 296 72 296C89.648 296 104 281.648 104 264ZM56 264C56 255.176 63.176 248 72 248C80.824 248 88 255.176 88 264C88 272.824 80.824 280 72 280C63.176 280 56 272.824 56 264ZM424 216H472V232H424V216ZM424 248H472V264H424V248ZM424 280H472V296H424V280Z" fill="#EE7773"/>
</svg>
