<svg width="512" height="512" viewBox="0 0 512 512" fill="none" xmlns="http://www.w3.org/2000/svg">
<path d="M450.56 77.9637C460.722 77.9637 468.945 69.7406 468.945 59.5782C468.945 49.4158 460.722 41.1927 450.56 41.1927C440.398 41.1927 432.175 49.4158 432.175 59.5782C432.175 69.7406 440.475 77.9637 450.56 77.9637ZM450.56 54.3031C453.508 54.3031 455.913 56.7079 455.913 59.6558C455.913 62.6037 453.508 65.0085 450.56 65.0085C447.535 65.0085 445.207 62.6812 445.207 59.6558C445.207 56.6303 447.612 54.3031 450.56 54.3031Z" fill="#EE7773"/>
<path d="M470.962 11.4812H93.0133C78.6618 11.4812 66.9479 23.1951 66.9479 37.5467V77.343H41.0376C26.686 77.343 14.9721 89.057 14.9721 103.408V430.235C14.9721 444.587 26.686 456.301 41.0376 456.301H214.264V494.002C214.264 497.571 217.212 500.519 220.781 500.519H343.195C346.764 500.519 349.712 497.571 349.712 494.002V456.301H418.987C433.338 456.301 445.052 444.587 445.052 430.235V390.439H470.962C485.314 390.439 497.028 378.725 497.028 364.373V37.5467C497.028 23.1951 485.314 11.4812 470.962 11.4812ZM79.9806 37.5467C79.9806 30.3321 85.8763 24.5139 93.0133 24.5139H470.962C478.177 24.5139 483.995 30.4097 483.995 37.5467V94.72H236.684L207.593 64.543C205.343 62.2157 202.24 60.897 199.059 60.897H134.982C128.465 60.897 123.113 66.2497 123.113 72.7661V94.72H79.9806V37.5467ZM41.0376 443.345C33.823 443.345 28.0048 437.45 28.0048 430.313V103.408C28.0048 96.1939 33.9006 90.3757 41.0376 90.3757H66.9479V364.451C66.9479 378.802 78.6618 390.516 93.0133 390.516H234.512C237.072 395.481 238.235 401.067 237.77 406.807H227.685C220.238 406.807 214.264 412.858 214.264 420.228V443.345H41.0376ZM275.549 306.89C276.868 304.562 279.273 303.088 281.988 303.088C286.022 303.088 289.28 306.347 289.28 310.381C289.28 313.018 287.884 315.423 285.634 316.742C283.152 318.216 280.204 318.061 277.178 316.354C276.778 316.148 276.453 315.823 276.247 315.423C273.765 311.467 274.773 308.364 275.549 306.89ZM275.471 291.297C270.691 292.886 266.678 296.207 264.223 300.606C260.499 307.278 260.965 315.423 265.309 322.405C266.705 324.577 268.567 326.361 270.817 327.68C274.385 329.697 278.264 330.783 282.065 330.783C285.634 330.783 289.125 329.852 292.228 328.068C298.434 324.422 302.313 317.673 302.313 310.458C302.313 301.537 296.495 294.012 288.504 291.297V257.784L346.143 361.813C346.065 361.891 345.988 362.046 345.755 362.124C325.353 367.399 312.01 386.482 313.096 406.807H250.958C252.121 386.405 238.701 367.321 217.91 361.503L275.471 257.784V291.297ZM336.679 487.486H227.297L227.685 419.762H336.291C336.524 419.762 336.679 419.918 336.679 420.15V487.486ZM432.019 430.235C432.019 437.45 426.124 443.268 418.987 443.268H349.712V420.15C349.712 412.703 343.661 406.73 336.291 406.73H326.206C325.741 400.989 326.982 395.404 329.464 390.439H432.019V430.235ZM470.962 377.484H342.109C344.204 376.32 346.453 375.312 348.936 374.691C353.047 373.605 356.383 370.735 358.09 366.856C359.719 363.055 359.486 358.788 357.469 355.142L290.754 234.977C289.047 231.796 285.712 229.779 282.065 229.779C278.342 229.857 275.006 231.719 273.222 234.899L206.429 355.142C204.412 358.788 204.257 363.132 205.886 366.933C207.515 370.812 210.851 373.605 214.962 374.691C217.445 375.312 219.617 376.32 221.789 377.484H93.0133C85.7988 377.484 79.9806 371.588 79.9806 364.451V107.753H124.199C130.715 107.753 136.068 102.4 136.068 95.8836V73.9297H198.516L227.607 104.107C229.857 106.434 232.96 107.753 236.141 107.753H483.995V364.373C483.995 371.588 478.177 377.484 470.962 377.484Z" fill="#EE7773"/>
<path d="M406.187 77.9637C416.349 77.9637 424.572 69.7406 424.572 59.5782C424.572 49.4158 416.349 41.1927 406.187 41.1927C396.024 41.1927 387.801 49.4158 387.801 59.5782C387.801 69.7406 396.024 77.9637 406.187 77.9637ZM406.187 54.3031C409.135 54.3031 411.539 56.7079 411.539 59.6558C411.539 62.6037 409.135 65.0085 406.187 65.0085C403.161 65.0085 400.834 62.6812 400.834 59.6558C400.834 56.6303 403.239 54.3031 406.187 54.3031ZM361.736 77.9637C371.898 77.9637 380.121 69.7406 380.121 59.5782C380.121 49.4158 371.898 41.1927 361.736 41.1927C351.573 41.1927 343.35 49.4158 343.35 59.5782C343.35 69.7406 351.573 77.9637 361.736 77.9637ZM361.736 54.3031C364.684 54.3031 367.088 56.7079 367.088 59.6558C367.088 62.6037 364.684 65.0085 361.736 65.0085C358.71 65.0085 356.383 62.6812 356.383 59.6558C356.383 56.6303 358.788 54.3031 361.736 54.3031ZM407.583 164.538C403.782 168.339 401.377 173.149 400.446 178.269H309.295V168.029C309.295 161.047 303.632 155.384 296.65 155.384H267.249C260.267 155.384 254.604 161.047 254.604 168.029V178.269H163.53C162.676 173.227 160.272 168.417 156.393 164.461C146.541 154.764 129.707 154.919 120.087 164.538C115.2 169.425 112.562 175.864 112.562 182.691C112.562 189.595 115.278 196.112 120.087 200.844C124.975 205.886 131.491 208.446 138.24 208.446C142.507 208.446 146.851 207.438 150.962 205.343C155.443 203.048 159.042 199.34 161.202 194.793C161.745 193.629 162.211 192.465 162.599 191.302H225.823C191.457 208.058 165.547 239.554 156.548 277.566H146.463C139.481 277.566 133.818 283.229 133.818 290.211V319.612C133.818 326.594 139.481 332.257 146.463 332.257H175.864C182.846 332.257 188.509 326.594 188.509 319.612V290.211C188.509 283.229 182.846 277.566 175.864 277.566H169.968C180.829 236.606 213.644 204.49 254.836 194.56V197.353C254.836 204.335 260.499 209.998 267.481 209.998H296.882C303.864 209.998 309.527 204.335 309.527 197.353V194.56C350.642 204.49 383.457 236.606 394.395 277.566H389.042C382.061 277.566 376.398 283.229 376.398 290.211V319.612C376.398 326.594 382.061 332.257 389.042 332.257H418.444C425.425 332.257 431.088 326.594 431.088 319.612V290.211C431.088 283.229 425.425 277.566 418.444 277.566H407.816C398.739 239.554 372.829 207.981 338.541 191.302H401.92C403.161 194.87 405.178 198.129 407.893 200.844C412.781 205.886 419.297 208.446 426.046 208.446C430.313 208.446 434.657 207.438 438.769 205.343C443.249 203.048 446.849 199.34 449.009 194.793C454.051 184.165 452.267 172.606 444.276 164.461C434.114 154.841 417.28 154.919 407.583 164.538ZM149.333 189.285C148.402 191.147 146.851 192.776 144.989 193.707C138.24 197.12 132.422 194.948 129.241 191.612C126.836 189.285 125.518 186.104 125.518 182.691C125.518 179.355 126.836 176.175 129.241 173.692C131.646 171.287 134.827 169.969 138.24 169.969C141.576 169.969 144.834 171.287 147.161 173.615C151.195 177.804 151.971 183.622 149.333 189.285ZM175.709 319.224L146.696 319.612L146.308 290.599H175.321L175.709 319.224ZM418.211 319.224L389.198 319.612L388.81 290.599H417.823L418.211 319.224ZM267.714 197.43L267.559 187.656C267.714 186.958 267.714 186.259 267.636 185.484V185.406C267.636 185.173 267.792 185.018 267.792 184.785C267.792 184.398 267.636 184.087 267.559 183.777L267.326 168.495H296.339L296.572 183.777C296.495 184.165 296.339 184.475 296.339 184.863C296.339 185.096 296.417 185.251 296.495 185.484V185.561C296.339 186.57 296.417 187.501 296.65 188.354L296.805 197.12L267.714 197.43ZM436.907 189.285C435.976 191.147 434.424 192.776 432.562 193.707C425.813 197.12 419.995 194.948 416.815 191.612C414.41 189.285 413.091 186.104 413.091 182.691C413.091 179.355 414.41 176.175 416.815 173.692C419.219 171.287 422.4 169.969 425.813 169.969C429.149 169.969 432.407 171.287 434.735 173.615C438.768 177.804 439.544 183.622 436.907 189.285Z" fill="#EE7773"/>
</svg>
