<svg width="207" height="38" viewBox="0 0 207 38" fill="none" xmlns="http://www.w3.org/2000/svg">
<path d="M65.0562 8.80772H47.5478V7.39328H66.8912V34H47.1273V32.5856L65.0562 8.80772ZM65.4767 32.5856V10.6044L48.8858 32.5856H65.4767ZM79.5536 6.81986C81.5415 6.81986 83.3764 7.31682 85.0585 8.31075C86.7405 9.2792 88.0657 10.6044 89.0342 12.2865C90.0281 13.9685 90.5251 15.8035 90.5251 17.7913V23.602C90.5251 25.5898 90.0281 27.4248 89.0342 29.1068C88.0657 30.7888 86.7405 32.1268 85.0585 33.1208C83.3764 34.0892 81.5415 34.5734 79.5536 34.5734C77.5658 34.5734 75.7308 34.0892 74.0488 33.1208C72.3667 32.1268 71.0288 30.7888 70.0348 29.1068C69.0664 27.4248 68.5822 25.5898 68.5822 23.602V17.7913C68.5822 15.8035 69.0664 13.9685 70.0348 12.2865C71.0288 10.6044 72.3667 9.2792 74.0488 8.31075C75.7308 7.31682 77.5658 6.81986 79.5536 6.81986ZM69.9966 23.602C69.9966 25.335 70.4171 26.9406 71.2581 28.4187C72.1246 29.8714 73.2842 31.031 74.7369 31.8975C76.215 32.7385 77.8206 33.159 79.5536 33.159C81.2866 33.159 82.8795 32.7385 84.3321 31.8975C85.8103 31.031 86.9699 29.8714 87.8109 28.4187C88.6774 26.9406 89.1106 25.335 89.1106 23.602V17.7913C89.1106 16.0583 88.6774 14.4655 87.8109 13.0128C86.9699 11.5347 85.8103 10.3751 84.3321 9.53405C82.8795 8.66755 81.2866 8.2343 79.5536 8.2343C77.8206 8.2343 76.215 8.66755 74.7369 9.53405C73.2842 10.3751 72.1246 11.5347 71.2581 13.0128C70.4171 14.4655 69.9966 16.0583 69.9966 17.7913V23.602ZM101.85 7.39328C103.786 7.39328 105.57 7.8775 107.201 8.84595C108.858 9.81439 110.17 11.1269 111.139 12.7834C112.107 14.4145 112.592 16.1985 112.592 18.1354V23.2579C112.592 25.1948 112.107 26.9915 111.139 28.6481C110.17 30.2791 108.858 31.5789 107.201 32.5473C105.57 33.5158 103.786 34 101.85 34H92.0249V7.39328H101.85ZM111.177 18.1354C111.177 16.4533 110.757 14.8987 109.916 13.4715C109.075 12.0444 107.928 10.9103 106.475 10.0692C105.048 9.22823 103.493 8.80772 101.811 8.80772H93.4394V32.5856H101.811C103.493 32.5856 105.048 32.1651 106.475 31.324C107.928 30.483 109.075 29.3489 109.916 27.9217C110.757 26.4946 111.177 24.94 111.177 23.2579V18.1354ZM133.32 7.39328V8.80772H125.369V32.5856H133.32V34H116.079V32.5856H123.993V8.80772H116.079V7.39328H133.32ZM138.413 7.39328H158.254V8.80772H139.828V19.9703H154.737V21.3847H139.828V34H138.413V7.39328ZM161.589 34V7.39328H163.003V32.5856H181.544V34H161.589ZM192.371 6.81986C194.359 6.81986 196.194 7.31682 197.876 8.31075C199.558 9.2792 200.883 10.6044 201.852 12.2865C202.846 13.9685 203.343 15.8035 203.343 17.7913V23.602C203.343 25.5898 202.846 27.4248 201.852 29.1068C200.883 30.7888 199.558 32.1268 197.876 33.1208C196.194 34.0892 194.359 34.5734 192.371 34.5734C190.383 34.5734 188.548 34.0892 186.866 33.1208C185.184 32.1268 183.846 30.7888 182.852 29.1068C181.884 27.4248 181.4 25.5898 181.4 23.602V17.7913C181.4 15.8035 181.884 13.9685 182.852 12.2865C183.846 10.6044 185.184 9.2792 186.866 8.31075C188.548 7.31682 190.383 6.81986 192.371 6.81986ZM182.814 23.602C182.814 25.335 183.235 26.9406 184.076 28.4187C184.942 29.8714 186.102 31.031 187.554 31.8975C189.033 32.7385 190.638 33.159 192.371 33.159C194.104 33.159 195.697 32.7385 197.15 31.8975C198.628 31.031 199.787 29.8714 200.628 28.4187C201.495 26.9406 201.928 25.335 201.928 23.602V17.7913C201.928 16.0583 201.495 14.4655 200.628 13.0128C199.787 11.5347 198.628 10.3751 197.15 9.53405C195.697 8.66755 194.104 8.2343 192.371 8.2343C190.638 8.2343 189.033 8.66755 187.554 9.53405C186.102 10.3751 184.942 11.5347 184.076 13.0128C183.235 14.4655 182.814 16.0583 182.814 17.7913V23.602Z" fill="#011309"/>
<path d="M24.7833 11.3197V11.0852C24.7833 9.14073 23.207 7.56445 21.2626 7.56445C20.2306 7.56445 19.2506 8.01723 18.5817 8.80306L0.897501 29.5777C0.318157 30.2582 0 31.1228 0 32.0166V32.3823C0 34.2584 1.52091 35.7793 3.39704 35.7793C4.38711 35.7793 5.32791 35.3474 5.97326 34.5965L23.8759 13.7675C24.4614 13.0863 24.7833 12.2179 24.7833 11.3197Z" fill="#011309"/>
<rect x="12.0104" y="29.1067" width="13.1542" height="7.19517" rx="3.59758" fill="#011309"/>
<rect x="0.411163" y="7.07495" width="10.2788" height="7.19517" rx="3.59758" fill="#011309"/>
<rect x="15.2386" y="31.6804" width="6.43095" height="0.978623" rx="0.489312" fill="#FFECEC"/>
<rect x="15.2386" y="33.1484" width="3.35528" height="0.978623" rx="0.489312" fill="#FFECEC"/>
<rect x="31.8643" y="7.07495" width="1.02788" height="29.3974" fill="#011309"/>
</svg>
